<?xml version="1.0" encoding="utf-8"?>
<!-- Magic Wand icon by Arthur Shlain from Usefulicons.com -->
<svg xmlns="http://www.w3.org/2000/svg" xmlns:xlink="http://www.w3.org/1999/xlink" xml:space="preserve" version="1.1" x="0px" y="0px" viewBox="0 0 100 100" width="400px" height="400px"><g style="fill: #ffffff"><path d="M75,35L65,25L10,80L20,90L75,35ZM56.036,41.036L65,32.071L67.929,35L58.965,43.964L56.036,41.036Z" stroke="none"></path><path d="M60,10L65,10L65,20L60,20L60,10Z" stroke="none"></path><path d="M80,35L90,35L90,40L80,40L80,35Z" stroke="none"></path><path d="M60,55L65,55L65,65L60,65L60,55Z" stroke="none"></path><path d="M35,35L45,35L45,40L35,40L35,35Z" stroke="none"></path><path d="M73.106,23.358L80.177,16.287L83.712,19.823L76.641,26.894L73.106,23.358Z" stroke="none"></path><path d="M73.106,51.642L76.641,48.107L83.712,55.178L80.177,58.713L73.106,51.642Z" stroke="none"></path><path d="M41.286,19.823L44.822,16.287L51.893,23.358L48.357,26.894L41.286,19.823Z" stroke="none"></path></g></svg>