<svg xmlns="http://www.w3.org/2000/svg" viewBox="0 0 500 500"><g id="freepik--background-complete--inject-64"><rect x="75.16" y="389.99" width="40.21" height="11.19" style="fill:#ebebeb"></rect><rect x="318.02" y="146.65" width="40.21" height="11.19" style="fill:#ebebeb"></rect><path d="M92.94,415.29c-11.91.16-28.44.48-40.21.46h-.46v-.46l0-11.19v-.5h.5c6.68,0,23.71.07,30.16.16l10,.12h.22v.22l-.22,11.19Zm0,0-.21-11.19.21.21-10,.12c-6.38.09-23.56.15-30.16.17l.5-.5,0,11.19-.46-.46c11.56,0,28.46.28,40.21.46Z" style="fill:#ebebeb"></path><path d="M212.73,209.61c-11.91.16-28.44.48-40.21.46h-.46v-.46l0-11.19v-.5h.5c6.68,0,23.71.08,30.16.17l10,.12H213v.21l-.22,11.19Zm0,0-.21-11.19.21.22-10,.12c-6.38.09-23.56.15-30.16.16l.5-.5,0,11.19-.46-.46c11.56,0,28.46.29,40.21.46Z" style="fill:#ebebeb"></path><rect x="150.09" y="212.53" width="40.21" height="11.19" style="fill:#ebebeb"></rect><path d="M168,209.61c-11.91.16-28.45.48-40.21.46h-.46v-.46l0-11.19v-.5h.5c6.67,0,23.71.08,30.16.17l10.05.12h.22v.21L168,209.61Zm0,0-.22-11.19.22.22-10.05.12c-6.38.09-23.56.15-30.16.16l.5-.5,0,11.19-.46-.46c11.56,0,28.46.29,40.21.46Z" style="fill:#ebebeb"></path><path d="M447.27,415.29c-11.92.16-28.45.48-40.21.46h-.46v-.46l0-11.19v-.5h.51c6.67,0,23.7.07,30.15.16l10.06.12h.22v.22l-.21,11.19Zm0,0-.22-11.19.22.21-10.06.12c-6.38.09-23.56.15-30.15.17l.49-.5,0,11.19-.46-.46c11.55,0,28.46.28,40.21.46Z" style="fill:#ebebeb"></path><path d="M424.84,57.88c-11.92.16-28.45.48-40.22.46h-.45v-.47l0-11.18v-.51h.5c6.68,0,23.71.07,30.16.16l10.06.12h.22v.22l-.21,11.18Zm0,0-.22-11.18.22.21L414.78,47c-6.38.09-23.56.15-30.16.16l.5-.49,0,11.18-.46-.46c11.56,0,28.47.29,40.22.46Z" style="fill:#ebebeb"></path><rect x="407.06" y="60.81" width="40.21" height="11.19" style="fill:#ebebeb"></rect><rect x="62.82" y="46.7" width="40.21" height="11.19" style="fill:#ebebeb"></rect><rect x="69.75" y="104.23" width="71.84" height="97.89" style="fill:#fff"></rect><path d="M145.33,205.85V100.49H66V205.85Zm-3.73-3.74H69.75V104.23H141.6Z" style="fill:#ebebeb"></path><rect x="78.31" y="138.82" width="54.74" height="28.69" transform="translate(-47.49 258.85) rotate(-90)" style="fill:#c7c7c7"></rect><rect x="145.34" y="100.49" width="3.06" height="105.37" style="fill:#dbdbdb"></rect><rect x="171.76" y="50.43" width="71.84" height="97.89" style="fill:#fff"></rect><path d="M247.34,152.06V46.7H168V152.06Zm-3.73-3.74H171.76V50.43h71.85Z" style="fill:#ebebeb"></path><rect x="193.34" y="72.01" width="28.69" height="54.73" style="fill:#ebebeb"></rect><rect x="247.35" y="46.7" width="3.06" height="105.37" style="fill:#dbdbdb"></rect><path d="M320.93,46.7V255.82H449.62V46.7ZM444.87,251.07H325.68V51.44H444.87Z" style="fill:#ebebeb"></path><rect x="325.68" y="51.44" width="119.19" height="199.63" style="fill:#fff"></rect><rect x="325.68" y="96.1" width="119.19" height="2.37" transform="translate(770.54 194.57) rotate(180)" style="fill:#ebebeb"></rect><rect x="325.68" y="150.07" width="119.19" height="2.37" transform="translate(770.54 302.52) rotate(180)" style="fill:#ebebeb"></rect><rect x="325.68" y="204.05" width="119.19" height="2.37" transform="translate(770.54 410.47) rotate(180)" style="fill:#ebebeb"></rect><rect x="404.45" y="51.44" width="2.37" height="200.03" style="fill:#ebebeb"></rect><rect x="363.72" y="51.44" width="2.37" height="200.03" style="fill:#ebebeb"></rect></g><g id="freepik--Floor--inject-64"><path d="M50.38,464.71c127.89-.61,271.35-.61,399.24,0-127.89.62-271.35.62-399.24,0Z" style="fill:#263238"></path></g><g id="freepik--character-1--inject-64"><polygon points="243.17 464.99 362.47 464.99 362.47 453.12 352.15 441.08 243.17 441.08 243.17 464.99" style="fill:#455a64"></polygon><polygon points="196.34 464.99 243.17 464.99 243.17 441.08 208.38 441.08 196.34 453.04 196.34 464.99" style="fill:#37474f"></polygon><rect x="318.43" y="337.5" width="18.41" height="103.58" transform="translate(655.28 778.58) rotate(180)" style="fill:#455a64"></rect><rect x="277.07" y="337.5" width="41.36" height="103.58" transform="translate(595.51 778.58) rotate(180)" style="fill:#37474f"></rect><rect x="243.82" y="405.24" width="53.62" height="8.33" transform="translate(541.26 818.81) rotate(180)" style="fill:#263238"></rect><rect x="222.77" y="405.24" width="21.05" height="8.33" transform="translate(466.59 818.81) rotate(180)" style="fill:#37474f"></rect><rect x="201.91" y="312.18" width="180.3" height="18.75" transform="translate(584.12 643.11) rotate(180)" style="fill:#455a64"></rect><polygon points="449.29 141.87 426.98 141.87 359.9 330.93 382.21 330.93 449.29 141.87" style="fill:#455a64"></polygon><rect x="270.25" y="330.93" width="89.66" height="6.57" transform="translate(630.15 668.43) rotate(180)" style="fill:#a6a6a6"></rect><polygon points="209.38 312.18 372.57 312.18 382.21 289.23 209.38 289.23 209.38 312.18" style="fill:#37474f"></polygon><polygon points="275.53 289.23 382.21 289.23 433.93 141.87 327.25 141.87 275.53 289.23" style="fill:#37474f"></polygon><polygon points="275.53 289.23 362.24 289.23 413.97 141.87 327.25 141.87 275.53 289.23" style="fill:#455a64"></polygon><rect x="209.38" y="289.22" width="94.82" height="22.95" style="fill:#455a64"></rect><path d="M398.21,155.88c-23,.67-46.21.67-69.25,0,23-.67,46.22-.67,69.25,0Z" style="fill:#37474f"></path><path d="M392,175c-23,.67-46.22.67-69.25,0,23-.67,46.22-.67,69.25,0Z" style="fill:#37474f"></path><path d="M385.69,194.11c-23,.68-46.22.68-69.26,0,23-.67,46.22-.67,69.26,0Z" style="fill:#37474f"></path><path d="M379.42,213.23c-23,.67-46.21.67-69.25,0,23-.67,46.22-.67,69.25,0Z" style="fill:#37474f"></path><path d="M373.16,232.35c-23,.67-46.21.67-69.25,0,23-.67,46.22-.67,69.25,0Z" style="fill:#37474f"></path><path d="M366.9,251.47c-23,.67-46.22.67-69.26,0,23-.68,46.22-.68,69.26,0Z" style="fill:#37474f"></path><path d="M360.63,270.58c-23,.67-46.21.67-69.25,0,23-.67,46.22-.67,69.25,0Z" style="fill:#37474f"></path><rect x="93.43" y="372.81" width="94.82" height="22.95" style="fill:#455a64"></rect><polygon points="188.25 395.76 304.2 312.18 304.2 289.23 188.25 372.81 188.25 395.76" style="fill:#37474f"></polygon><polygon points="93.43 372.81 209.38 289.23 304.2 289.23 188.25 372.81 93.43 372.81" style="fill:#455a64"></polygon><path d="M348.14,170.08c-10.35,21.18-21.58,45.76-28.38,50.15-13.36,8.63-28.27,15.49-36.67,17.09-4.29.81-17.34-25.08-13.43-27.63,5.77-3.77,29.36-15.61,30.82-16.49,2.43-1.44,21-21.65,36.47-34.59C352.74,145.38,353.87,158.35,348.14,170.08Z" style="fill:#d3766a"></path><path d="M261.31,238.45c2.05.3,1.91,1.38-1.3,3.21s-17.43,6.38-15.42,11.21,22-1.87,27.08-5.33,12.13-10.85,12.13-10.85C279.65,237.21,269.46,237.52,261.31,238.45Z" style="fill:#d3766a"></path><path d="M275.53,207.29c-11.63,1.91-25.15,3-35.38,11.51a6.62,6.62,0,0,0-2.32,3.64c-4.65,3.73-4.29,7.05-4.29,7.05-3.26,4.8-2.42,8.14-2.42,8.14s-5.42,4.45-3.28,8.16c2.39,4.18,9.53-2.88,15.82-4.36,14.43-3.39,35.89-4.18,40.14-4.74Z" style="fill:#d3766a"></path><path d="M256.28,227.25a96.76,96.76,0,0,0-12.46,3.69,95.62,95.62,0,0,0-12.54,6.73.12.12,0,0,1-.14-.19,50.47,50.47,0,0,1,25.1-10.42c.21,0,.26.14,0,.19" style="fill:#263238"></path><path d="M255.5,218.25c-4.05,1.28-11.16,3.58-21.87,11.35,0,0-.09,0-.06,0a45.16,45.16,0,0,1,21.87-11.49C255.7,218,255.77,218.16,255.5,218.25Z" style="fill:#263238"></path><path d="M255,213.42c-6.81,2.44-10.79,4.84-17.12,9,0,0-.09,0-.05-.06,6.69-5.52,9.74-6.76,17.12-9.22C255.19,213.09,255.26,213.32,255,213.42Z" style="fill:#263238"></path><path d="M302.07,213.83a7.13,7.13,0,0,0-1.45-3.84,12,12,0,0,0,.46-3.77c0-1.69-.29-3.28,1.14-4.76a3.86,3.86,0,0,0,2.1-.12,2.43,2.43,0,0,0,1.2-1.66,10,10,0,0,1,.39-1.17,7.44,7.44,0,0,1,.77-1.15,1.27,1.27,0,0,0-1.56-2,3.28,3.28,0,0,0-.76.46,3.07,3.07,0,0,1-1.39.65,2.85,2.85,0,0,0-1.78.66,2.78,2.78,0,0,0-.71,2.23,0,0,0,0,0,0,0,5.52,5.52,0,0,0-2.68,4.57,14.5,14.5,0,0,1-.05,3,5.45,5.45,0,0,1-.19.68,7.71,7.71,0,0,0-1.74-.48,12.7,12.7,0,0,0-2.15-.11,11.64,11.64,0,0,0-.3-2.7,5.51,5.51,0,0,0-3.89-3.71,5.44,5.44,0,0,0-6.14,2.6,6.66,6.66,0,0,0-.75,1.68,5.1,5.1,0,0,0-.12.65,5.45,5.45,0,0,0,1.61,4.26,5.67,5.67,0,0,0,4.38,1.48,20,20,0,0,0,2.45-.33c2.47,3.93,5.91,3.3,7.11,2.51a3.75,3.75,0,0,1,0,2.2,3.67,3.67,0,0,1-1.15,1.71,3.78,3.78,0,0,1-.9.57,4.47,4.47,0,0,1-4.09-.07c-1.61-1-2.63-2.63-3.87-4s-2.72-2.59-4.7-2.69h-.25a5.62,5.62,0,0,0-.92.05h0a5.55,5.55,0,0,0-3.3,1.61,6.43,6.43,0,0,0-1.53,7.57,7,7,0,0,0,1.3,1.85,7.19,7.19,0,0,1,1.76,2.09,2.35,2.35,0,0,1-.6,2.49,5.73,5.73,0,0,1-2.43,1.2c-.17,0-.24.43.36.43a5.86,5.86,0,0,0,3.95-1.31,2.79,2.79,0,0,0,.82-1.28,3.17,3.17,0,0,0-.1-2,28,28,0,0,0-1.54-2.92,5.8,5.8,0,0,1-.51-1.45A3.49,3.49,0,0,1,282,215.6a1.73,1.73,0,0,1,.37-.11,2.81,2.81,0,0,1,.49-.05h.23l.12,0a4.4,4.4,0,0,1,2.68,2l.17.22a13.48,13.48,0,0,0,3.74,3.62,7.77,7.77,0,0,0,7.29.5A8.16,8.16,0,0,0,302.07,213.83Zm-15.15-8.44c.78-1.27,2.26-.71,2.78,1a6.74,6.74,0,0,1,.25,1.34C287.36,208,286.18,206.59,286.92,205.39Z" style="fill:#263238"></path><path d="M297.57,207.67a2.78,2.78,0,0,1,.93.32,4.84,4.84,0,0,1,.82.54,7.6,7.6,0,0,1,.71.68l.31.38.28.4-.33-.36c-.11-.12-.21-.24-.33-.36s-.23-.23-.35-.33l-.18-.17-.19-.15a7.48,7.48,0,0,0-.79-.56,3.36,3.36,0,0,0-.42-.22A2.54,2.54,0,0,0,297.57,207.67Z" style="fill:#d3766a"></path><path d="M298,213.52a4.4,4.4,0,0,0-.5-.9,4,4,0,0,0-.32-.4,4.08,4.08,0,0,0-.36-.36,5.28,5.28,0,0,0-.82-.61,4.33,4.33,0,0,0-.93-.43h0c-.1-.13-.21-.26-.31-.4a4,4,0,0,1-.28-.43,5.32,5.32,0,0,1-.4-.79l-.05-.12s0-.05,0-.07a5.73,5.73,0,0,1-.25-.9,4.31,4.31,0,0,1-.08-1,5.48,5.48,0,0,0,.13,1,6.41,6.41,0,0,0,.27.88s0,.05,0,.08.05.12.07.17a6.17,6.17,0,0,0,.38.72,3.71,3.71,0,0,0,.28.41,3.86,3.86,0,0,0,.3.38,5,5,0,0,1,.93.45,4.65,4.65,0,0,1,.83.63c.13.12.24.25.36.38s.22.27.31.42A4.69,4.69,0,0,1,298,213.52Z" style="fill:#d3766a"></path><path d="M290.92,211a4.16,4.16,0,0,1-.41-.78,5.59,5.59,0,0,1-.26-.72l0-.1c0-.06,0-.13-.05-.2a4.69,4.69,0,0,1-.14-.65c0-.15,0-.29,0-.44l0-.43c.06.29.11.57.17.85s.12.52.19.77h0s0,0,0,.06c.08.28.17.55.26.82s.1.27.16.41A4.34,4.34,0,0,0,290.92,211Z" style="fill:#d3766a"></path><path d="M294.12,209c0,.06.05.12.07.17h-.11l-.05-.12s0-.05,0-.07a.08.08,0,0,1,.07,0S294.11,209,294.12,209Z" style="fill:#d3766a"></path><path d="M290.25,209.51l0-.1c0-.06,0-.13-.05-.2h0a.13.13,0,0,1,.13.1h0A.19.19,0,0,1,290.25,209.51Z" style="fill:#d3766a"></path><path d="M296,218a3.78,3.78,0,0,0,.9-.57,5.44,5.44,0,0,0,.42-.41l.06-.08a2.82,2.82,0,0,0,.42-.62l0-.07a4.87,4.87,0,0,0,.21-.53l.06-.2s0,0,0-.07a2.93,2.93,0,0,0,.1-.66v-.07a3.56,3.56,0,0,0-.1-1,.19.19,0,0,0,0-.08.83.83,0,0,0,0-.15,5.51,5.51,0,0,0-.31-.7.41.41,0,0,1-.05-.09l-.09-.14c-.09-.15-.21-.28-.31-.42l-.24-.26s0,0-.06-.06l-.06-.06a4.48,4.48,0,0,0-.64-.51l-.1-.07-.09-.05a5.15,5.15,0,0,0-.7-.36l-.16-.06-.07,0a3.86,3.86,0,0,1-.3-.38,3.71,3.71,0,0,1-.28-.41,6.17,6.17,0,0,1-.38-.72s-.05-.11-.07-.17,0-.05,0-.08a3.77,3.77,0,0,1,1,0h.07a4.68,4.68,0,0,1,1.64.66l.07,0a5.57,5.57,0,0,1,1.17,1.05l.07.09a5.06,5.06,0,0,1,.75,1.34s0,.07,0,.11a.76.76,0,0,0,0,.11,4.37,4.37,0,0,1,.18,1.13v.1a4.33,4.33,0,0,1-.15,1.13l0,.1a5.89,5.89,0,0,1-.26.7l0,.09a5.19,5.19,0,0,1-.46.75l-.06.08a4.57,4.57,0,0,1-.56.6l-.08.07A4.18,4.18,0,0,1,296,218Z" style="fill:#d3766a;opacity:0.5"></path><path d="M295.38,210.8l-.16-.06a4.14,4.14,0,0,1-.13-1.75h.07A4.07,4.07,0,0,0,295.38,210.8Z" style="fill:#d3766a;opacity:0.5"></path><path d="M296.27,211.28l-.1-.07a3.91,3.91,0,0,1,.63-1.55l.07,0a4.1,4.1,0,0,0-.44.89A3.44,3.44,0,0,0,296.27,211.28Z" style="fill:#d3766a;opacity:0.5"></path><path d="M297,211.91s0,0-.06-.06h0a3.93,3.93,0,0,1,.44-.55,4.07,4.07,0,0,1,.62-.54l.07.09a3.09,3.09,0,0,0-.6.48A3.87,3.87,0,0,0,297,211.91Z" style="fill:#d3766a;opacity:0.5"></path><path d="M298.9,212.29a3.23,3.23,0,0,0-1.18.53.41.41,0,0,1-.05-.09,2.89,2.89,0,0,1,1.19-.55S298.89,212.25,298.9,212.29Z" style="fill:#d3766a;opacity:0.5"></path><path d="M299.12,213.63a3,3,0,0,0-1,.12.19.19,0,0,0,0-.08,2.52,2.52,0,0,1,1.05-.14Z" style="fill:#d3766a;opacity:0.5"></path><path d="M298.94,214.86a2.13,2.13,0,0,0-.75-.07v-.07a2.28,2.28,0,0,1,.78,0Z" style="fill:#d3766a;opacity:0.5"></path><path d="M298.64,215.65a2.17,2.17,0,0,0-.56-.13s0,0,0-.07a2,2,0,0,1,.59.11Z" style="fill:#d3766a;opacity:0.5"></path><path d="M298.12,216.48a1.58,1.58,0,0,0-.35-.16l0-.07a2.87,2.87,0,0,1,.37.15Z" style="fill:#d3766a;opacity:0.5"></path><path d="M297.48,217.15l-.19-.13.06-.08.21.14Z" style="fill:#d3766a;opacity:0.5"></path><path d="M290.92,211l-.65.11-.14,0c-.41.07-.82.13-1.23.17h-.16l-.27,0a8,8,0,0,1-1.2,0l-.18,0a5.36,5.36,0,0,1-1.47-.41l-.19-.08a5.21,5.21,0,0,1-1.34-.93.46.46,0,0,0-.07-.07l-.11-.12a5.14,5.14,0,0,1-.84-1.19.37.37,0,0,1-.05-.11,5.19,5.19,0,0,1-.45-1.38l0-.13a6.11,6.11,0,0,1-.07-1.05.53.53,0,0,0,0-.13v-.08a5.1,5.1,0,0,1,.12-.65h0a1.05,1.05,0,0,1,.05-.19,6.45,6.45,0,0,1,.69-1.48.06.06,0,0,1,0,0,3.2,3.2,0,0,0-.28,1.07.41.41,0,0,0,0,.11,3.37,3.37,0,0,0,0,.55.34.34,0,0,1,0,.1,4.36,4.36,0,0,0,.2.81,1,1,0,0,0,0,.1,4.66,4.66,0,0,0,.48.91.61.61,0,0,1,.07.1,5.17,5.17,0,0,0,.62.71l0,0a3.47,3.47,0,0,0,.29.25,5.45,5.45,0,0,0,.74.51l.06,0a4.88,4.88,0,0,0,1.27.49H287a6.6,6.6,0,0,0,1.32.15h.06l1.36,0h.48c0,.07,0,.14.05.2l0,.1a5.59,5.59,0,0,0,.26.72A4.16,4.16,0,0,0,290.92,211Z" style="fill:#d3766a;opacity:0.5"></path><path d="M282.61,204.94a1.05,1.05,0,0,1,.05-.19,2.34,2.34,0,0,1,.4-.37.41.41,0,0,0,0,.11A2.08,2.08,0,0,0,282.61,204.94Z" style="fill:#d3766a;opacity:0.5"></path><path d="M282.47,205.81a.53.53,0,0,0,0-.13,2.22,2.22,0,0,1,.58-.64.34.34,0,0,1,0,.1A2.56,2.56,0,0,0,282.47,205.81Z" style="fill:#d3766a;opacity:0.5"></path><path d="M282.57,207l0-.13a2.93,2.93,0,0,1,.73-.91,1,1,0,0,0,0,.1A2.71,2.71,0,0,0,282.57,207Z" style="fill:#d3766a;opacity:0.5"></path><path d="M283.07,208.48a.37.37,0,0,1-.05-.11,2.73,2.73,0,0,1,.77-1.41.61.61,0,0,1,.07.1A2.87,2.87,0,0,0,283.07,208.48Z" style="fill:#d3766a;opacity:0.5"></path><path d="M284,209.79l-.11-.12a3.47,3.47,0,0,1,.57-1.9l0,0A3.38,3.38,0,0,0,284,209.79Z" style="fill:#d3766a;opacity:0.5"></path><path d="M285.62,210.87l-.19-.08a2.86,2.86,0,0,1,.13-2.22l.06,0a2.67,2.67,0,0,0-.25,1.22A2.79,2.79,0,0,0,285.62,210.87Z" style="fill:#d3766a;opacity:0.5"></path><path d="M287.27,211.31l-.18,0a3,3,0,0,1-.2-2.19H287a2.8,2.8,0,0,0,.32,2.21Z" style="fill:#d3766a;opacity:0.5"></path><path d="M288.9,211.31h-.16a3,3,0,0,1-.47-2.07h.06a2.93,2.93,0,0,0,.1,1.14A3.2,3.2,0,0,0,288.9,211.31Z" style="fill:#d3766a;opacity:0.5"></path><path d="M290.27,211.12l-.14,0a3.9,3.9,0,0,1-.44-1.92h.05a3.59,3.59,0,0,0,.22,1.26A3.44,3.44,0,0,0,290.27,211.12Z" style="fill:#d3766a;opacity:0.5"></path><path d="M289.77,221.33c-.22-.14-.45-.29-.67-.45l-.07,0-.46-.36-.06-.05q-.33-.28-.66-.6l-.07-.07q-.33-.31-.66-.69l-.06-.07c-.23-.26-.46-.53-.69-.83l-.06-.08c-.1-.12-.19-.24-.28-.37l-.17-.22c-.08-.12-.17-.24-.26-.35a.27.27,0,0,0-.07-.08,5.5,5.5,0,0,0-1-1l-.07,0a2.91,2.91,0,0,0-1.31-.58l-.12,0h-.23a2.81,2.81,0,0,0-.49.05,1.81,1.81,0,0,0-.7.29l-.09.07a3,3,0,0,0-.88,1l-.05.1a3.71,3.71,0,0,0-.37,1.32.53.53,0,0,0,0,.13,4.06,4.06,0,0,0,.08,1.15.13.13,0,0,0,0,.06.36.36,0,0,0,0,.1,5.52,5.52,0,0,0,.38,1.08h0a.54.54,0,0,1,0,.11.47.47,0,0,1,.05.1c.14.27.28.52.43.78l.05.09h0l.36.61.06.09c.12.22.24.43.34.66l0,.06a5.93,5.93,0,0,1,.26.63l0,0a.19.19,0,0,0,0,.07h0a3.41,3.41,0,0,1,.13.53s0,.05,0,.08a3.15,3.15,0,0,1-.09,1.3,3.64,3.64,0,0,0,0-.57,3.85,3.85,0,0,0-.06-.69s0-.06,0-.08a2.53,2.53,0,0,0-.14-.49s0-.05,0-.08a5,5,0,0,0-.29-.62l0-.06q-.18-.3-.39-.6l-.06-.08-.43-.54-.05-.06-.13-.15q-.28-.33-.54-.66l-.05-.07a8.66,8.66,0,0,1-.72-1.1l0-.06a5.55,5.55,0,0,1-.54-1.42.19.19,0,0,1,0-.07,4.3,4.3,0,0,1-.05-1.68s0-.08,0-.12,0,0,0-.06a3.59,3.59,0,0,1,1.07-1.88h0s0,0,0-.05a3.51,3.51,0,0,1,2.06-.9,3.23,3.23,0,0,1,.44,0h.09a3.54,3.54,0,0,1,2.11.93l.1.08a8.29,8.29,0,0,1,1.2,1.39l0,.05a13.65,13.65,0,0,1,.78,1.25l0,.05c.19.34.38.7.58,1.09a.14.14,0,0,1,0,.06.54.54,0,0,1,.07.13,4.85,4.85,0,0,0,.45.74l.05.07a6.76,6.76,0,0,0,.54.64s0,0,0,.05l.4.39.06.05Z" style="fill:#d3766a;opacity:0.5"></path><path d="M289.1,220.88l-.07,0,.08-.08.06.05Z" style="fill:#d3766a;opacity:0.5"></path><path d="M288.71,220.36l-.14.11-.06-.05.15-.11S288.69,220.34,288.71,220.36Z" style="fill:#d3766a;opacity:0.5"></path><path d="M288.12,219.67a1.17,1.17,0,0,1-.27.15l-.07-.07a1.59,1.59,0,0,0,.29-.15Z" style="fill:#d3766a;opacity:0.5"></path><path d="M287.12,219.06l-.06-.07a1.63,1.63,0,0,0,.47-.32.14.14,0,0,1,0,.06A2,2,0,0,1,287.12,219.06Z" style="fill:#d3766a;opacity:0.5"></path><path d="M286.37,218.16l-.06-.08a1.76,1.76,0,0,0,.6-.55l0,.05A2,2,0,0,1,286.37,218.16Z" style="fill:#d3766a;opacity:0.5"></path><path d="M285.6,217.14a.27.27,0,0,0-.07-.08,1.76,1.76,0,0,0,.56-.83l0,.05A1.92,1.92,0,0,1,285.6,217.14Z" style="fill:#d3766a;opacity:0.5"></path><path d="M284.56,216.1l-.07,0a2,2,0,0,0,.3-.81,1.93,1.93,0,0,0,0-.48l.1.08A2.23,2.23,0,0,1,284.56,216.1Z" style="fill:#d3766a;opacity:0.5"></path><path d="M283,215.45h-.12a2,2,0,0,0-.31-1.62h.09A2.08,2.08,0,0,1,283,215.45Z" style="fill:#d3766a;opacity:0.5"></path><path d="M281.64,215.78l-.09.07a3.14,3.14,0,0,0-1.51-1.07s0,0,0-.05A3.21,3.21,0,0,1,281.64,215.78Z" style="fill:#d3766a;opacity:0.5"></path><path d="M280.62,216.94a2.57,2.57,0,0,0-1.66-.22s0,0,0-.06a2.55,2.55,0,0,1,1.7.18Z" style="fill:#d3766a;opacity:0.5"></path><path d="M280.24,218.39a2.14,2.14,0,0,0-.44,0,2.56,2.56,0,0,0-.79.21.19.19,0,0,1,0-.07,2.62,2.62,0,0,1,1.26-.26A.53.53,0,0,0,280.24,218.39Z" style="fill:#d3766a;opacity:0.5"></path><path d="M280.35,219.7a2,2,0,0,0-.77.37l0-.06a2.17,2.17,0,0,1,.78-.41A.36.36,0,0,0,280.35,219.7Z" style="fill:#d3766a;opacity:0.5"></path><path d="M280.35,221.24l-.05-.07a2.66,2.66,0,0,1,.43-.39h0a.54.54,0,0,1,0,.11A2.06,2.06,0,0,0,280.35,221.24Z" style="fill:#d3766a;opacity:0.5"></path><path d="M281.07,222.11l-.05-.06a2.09,2.09,0,0,1,.24-.28l.05.09h0A2.83,2.83,0,0,0,281.07,222.11Z" style="fill:#d3766a;opacity:0.5"></path><path d="M281.56,222.73l-.06-.08.17-.18.06.09Z" style="fill:#d3766a;opacity:0.5"></path><path d="M282,223.39l0-.06.12-.11,0,.06A.69.69,0,0,0,282,223.39Z" style="fill:#d3766a;opacity:0.5"></path><path d="M282.41,224l-.12.08s0-.05,0-.08l.12-.07A.19.19,0,0,0,282.41,224Z" style="fill:#d3766a;opacity:0.5"></path><path d="M282.56,224.62l-.11,0s0-.06,0-.08l.11,0S282.55,224.59,282.56,224.62Z" style="fill:#d3766a;opacity:0.5"></path><path d="M299,208.08a5.67,5.67,0,0,0,.33-1.35l.08-.09c.11-.15.24-.29.34-.45a0,0,0,0,0,0,0,2,2,0,0,0-.19.22l-.1.13-.07.1c.05-.47.07-.95.08-1.42s0-.66,0-1a3.29,3.29,0,0,0,.37-.66s0-.05-.05,0a3.7,3.7,0,0,1-.31.55,5.51,5.51,0,0,1,.52-2.13,7.2,7.2,0,0,1,.48-.77.59.59,0,0,0,.16-.07,2.85,2.85,0,0,0,.5-.24s0,0,0,0l-.29.11-.18.08-.08,0a9.56,9.56,0,0,1,1.88-1.77.36.36,0,0,0,.15,0l.54-.11s0,0,0,0l-.31,0-.16,0-.1,0,.78-.56.89-.65a.76.76,0,0,0,.16,0c.13,0,.26,0,.38-.07s0,0,0,0a.74.74,0,0,0-.21,0l-.22,0a10.66,10.66,0,0,0,1.28-1.13c0-.05.05-.07,0-.08s-.08.06-.09.06a11.61,11.61,0,0,1-1.29,1.05.54.54,0,0,1,.06-.11l.12-.22a0,0,0,1,0,0,0,4,4,0,0,0-.23.34.23.23,0,0,0,0,.11l-.92.66-.73.51,0-.05.08-.13.18-.28s0-.07-.05,0l-.3.42a.34.34,0,0,0-.09.18,9,9,0,0,0-1.89,1.74c0-.07.07-.14.08-.18s.09-.24.12-.36,0,0,0,0a3.51,3.51,0,0,0-.22.48.51.51,0,0,0-.06.22,5.12,5.12,0,0,0-.5.82,6,6,0,0,0-.53,2.09,2.31,2.31,0,0,1-.15-.53s-.06,0-.06,0a2,2,0,0,0,.19.71c0,.39-.05.79-.06,1.19s0,.8-.06,1.21a1.47,1.47,0,0,1-.05-.26c0-.12-.06-.24-.08-.36a0,0,0,0,0-.06,0c0,.19.07.38.1.56s0,.18.08.23a7.18,7.18,0,0,1-.23,1.31s0,0,0,0S299,208.11,299,208.08Z" style="fill:#d3766a"></path><path d="M295.94,213.05c-.17-.07-.36-.12-.54-.18a2.29,2.29,0,0,0,1.59-.59l0,0,0,0a2.45,2.45,0,0,1-1.66.53,5.09,5.09,0,0,0,.5-.3s0,0,0,0a5.28,5.28,0,0,0-.62.33,2.83,2.83,0,0,1-1.24-.45,3.72,3.72,0,0,1-.81-.73l.5.19s0,0,0,0a3.33,3.33,0,0,0-.61-.27,5.31,5.31,0,0,1-.88-1.8c0-.13-.07-.25-.1-.38.1.12.2.24.31.35s.07,0,.05,0a3.81,3.81,0,0,0-.4-.5c-.11-.51-.18-1-.24-1.54,0-.28-.08-.57-.13-.86a2.11,2.11,0,0,1,.31.52,0,0,0,0,0,.05,0,1.81,1.81,0,0,0-.38-.64,6.93,6.93,0,0,0-.75-2.29l-.23-.34.21.14a2.31,2.31,0,0,1,.29.24s.11,0,.07,0a1.8,1.8,0,0,0-.4-.33,1.22,1.22,0,0,0-.28-.14l-.08-.1a3,3,0,0,0-2.36-1.06l.55-.24s0,0,0,0c-.26.09-.53.17-.79.28h0a3.13,3.13,0,0,0-.44.1A2.7,2.7,0,0,0,285.9,204a3.13,3.13,0,0,1,.1-.44s0,0,0,0a2.36,2.36,0,0,0-.18.68,2.71,2.71,0,0,0-.2,1.92,4.24,4.24,0,0,0,.17.47l-.09-.08-.24-.18s-.05,0,0,0a2.13,2.13,0,0,0,.31.29.3.3,0,0,0,.14.1,3,3,0,0,0,2.22,1.39,3.63,3.63,0,0,1-.56.12s0,.07,0,.06l.44-.07c.07,0,.2,0,.22-.1a6.37,6.37,0,0,0,1.44.06,9.86,9.86,0,0,1-1.44-.08c0-.07-.1-.1-.14-.13l-.4-.23s-.06,0,0,.05l.23.15a1.52,1.52,0,0,1,.21.14,2.78,2.78,0,0,1-2.12-1.43,1,1,0,0,0,0-.15c0-.14,0-.28,0-.43s-.06-.05-.07,0a2.6,2.6,0,0,0,0,.26l0,.13v0a2.66,2.66,0,0,1,0-2.24l.58-.4s0-.08,0-.06l-.47.31c.05-.08.09-.16.15-.24a2.62,2.62,0,0,1,1.84-1.12l.72.29a0,0,0,0,0,0-.06,2.65,2.65,0,0,0-.54-.25,2.53,2.53,0,0,1,1.08.17,2.87,2.87,0,0,1,1.22.93s0,.14,0,.19a2.72,2.72,0,0,0,.1.57s0,0,0,0a1.09,1.09,0,0,0,0-.31,1.65,1.65,0,0,1,0-.34,5.22,5.22,0,0,1,.83,1.84,6.57,6.57,0,0,1,.16.77,1,1,0,0,0-.19.66,0,0,0,0,0,.05,0,1.61,1.61,0,0,1,.16-.54c.06.32.1.65.15,1s.13.91.21,1.36l0,0a1.59,1.59,0,0,0-.1.75s0,0,0,0a3.47,3.47,0,0,1,.11-.63,5.88,5.88,0,0,0,1,2.34l0,0h0a1.57,1.57,0,0,0,.26.69s.06,0,0,0a3.63,3.63,0,0,1-.19-.52,3.38,3.38,0,0,0,2.13,1.18s0,0,0,0c.26.06.5.15.76.21C296,213.09,296,213.06,295.94,213.05Z" style="fill:#d3766a"></path><path d="M298.2,219.7l-.37.05a1.69,1.69,0,0,1-.39,0,9.72,9.72,0,0,0,1.14-.86,8.49,8.49,0,0,0,.94-1l.23-.28.12-.06.54-.35s0-.11,0-.08a4.63,4.63,0,0,1-.51.33,5.89,5.89,0,0,0,1-2.42.61.61,0,0,0,.07-.1,5.58,5.58,0,0,0,.32-.52s0-.06-.05,0a3.21,3.21,0,0,0-.21.3,1.3,1.3,0,0,1-.1.15h0a5.72,5.72,0,0,0-.18-2.46,5,5,0,0,0,0-.67s-.06,0-.06,0a2.54,2.54,0,0,1,0,.55,4.59,4.59,0,0,0-.27-.7,6.28,6.28,0,0,0-1.12-1.64.88.88,0,0,0-.09-.26,1.69,1.69,0,0,0-.29-.41,0,0,0,0,0,0,0,1.81,1.81,0,0,1,.19.29,1,1,0,0,1,.13.27,7.09,7.09,0,0,0-2-1.44h0a1.27,1.27,0,0,0-.49-.43s-.05,0,0,0a2.22,2.22,0,0,1,.36.32,7.87,7.87,0,0,0-1.82-.57c0-.08-.14-.12-.2-.15a2.53,2.53,0,0,0-.36-.12s0,0,0,0l.24.09a1,1,0,0,1,.23.12,8.27,8.27,0,0,0-1.23-.13,9.42,9.42,0,0,1,1.22.19,1.14,1.14,0,0,1-.19.07l-.31.11s0,.07,0,.06l.4-.14s.14,0,.18-.08a8.38,8.38,0,0,1,1.77.6c-.17,0-.34,0-.51,0s0,0,0,0a1.58,1.58,0,0,0,.61,0,6.94,6.94,0,0,1,2.05,1.46l-.16-.07a2.26,2.26,0,0,0-.33-.13,0,0,0,0,0,0,.06,3.56,3.56,0,0,0,.49.19l.1,0a6.13,6.13,0,0,1,1,1.39,6.32,6.32,0,0,1,.37.9c-.13-.15-.26-.31-.4-.45s0,0,0,0a5.11,5.11,0,0,0,.5.65,5.48,5.48,0,0,1,.13,2.38c0-.07-.06-.19-.08-.25a1.75,1.75,0,0,0-.12-.32,0,0,0,0,0-.05,0,5.34,5.34,0,0,0,.16.53.64.64,0,0,0,.06.18,6,6,0,0,1-1.05,2.42c0-.08.06-.24.07-.29l.06-.36s-.05-.05-.06,0c-.05.2-.09.39-.14.58s0,.14,0,.2a6.06,6.06,0,0,1-.67.77,8.51,8.51,0,0,1-1.57,1.26l.08-.09.13-.17.27-.36s0-.08-.05-.05-.3.34-.44.52-.14.15-.15.24a5.66,5.66,0,0,1-2.94.82l.16-.09.37-.24a0,0,0,1,0,0,0l-.57.32-.09.05a4.73,4.73,0,0,1-1.95-.55,6.35,6.35,0,0,1-1-.71c.17,0,.35.06.52.09s.06-.07,0-.08c-.23-.05-.46-.1-.7-.13a11.31,11.31,0,0,1-1.72-1.93l.09,0a2,2,0,0,0,.31.13s.05,0,0,0a3.42,3.42,0,0,0-.43-.21l-.1,0q-.43-.62-.84-1.23l-.31-.46,0,0,.25.14s.07,0,0-.06a3.41,3.41,0,0,0-.37-.25l-.07,0c-.2-.29-.41-.59-.62-.87s-.36-.46-.57-.69l.13.07.26.13s.06,0,0-.06l-.45-.26-.11-.05a9,9,0,0,0-1.49-1.31,3,3,0,0,0,.43.05,0,0,0,0,0,0-.05,3.39,3.39,0,0,0-.62-.12,6,6,0,0,0-1.24-.62l.37,0a0,0,0,0,0,0-.06l-.5,0s0,0,0,0l-.39-.11h-.32a4.82,4.82,0,0,1,.75.18,4.89,4.89,0,0,0,.4.39s.05,0,0,0-.18-.2-.27-.3a6.08,6.08,0,0,1,1.16.6v0c.16.19.3.39.46.58a0,0,0,0,0,.05-.05,3.37,3.37,0,0,0-.28-.38,8.4,8.4,0,0,1,1.38,1.3.81.81,0,0,0,.07.22,4.19,4.19,0,0,0,.16.46s.08,0,.07,0a1.83,1.83,0,0,0-.08-.25l0-.15s0-.09-.05-.13c.42.49.81,1,1.2,1.56a.54.54,0,0,0,0,.31.93.93,0,0,0,.12.33s.06,0,.06,0-.1-.31-.11-.48l.43.64c.24.37.49.73.74,1.08h0c-.06.08,0,.23,0,.32a2.13,2.13,0,0,0,.18.41s.09,0,.07,0-.08-.17-.11-.26a.9.9,0,0,1-.09-.32v0a12.37,12.37,0,0,0,1.81,2,2.51,2.51,0,0,0,.48.76,0,0,0,0,0,.07-.06,3.23,3.23,0,0,1-.37-.54,5.6,5.6,0,0,0,2.48,1.21l.44.07c0,.09.19.14.27.17a2.5,2.5,0,0,0,.63.27s0,0,0,0a1.52,1.52,0,0,0-.33-.18,1.69,1.69,0,0,1-.36-.17s0,0,0,0a5.62,5.62,0,0,0,3.1-.87,1.13,1.13,0,0,0,.36,0,1.58,1.58,0,0,0,.57-.09S298.23,219.7,298.2,219.7Z" style="fill:#d3766a"></path><path d="M303.41,196.86a.61.61,0,0,1-.47-.18.41.41,0,0,1-.09-.34.85.85,0,0,1,.57-.59.94.94,0,0,1,.41,0l.09,0a.48.48,0,0,1,.18.06.44.44,0,0,1,.22.31.49.49,0,0,1-.13.42h0a1,1,0,0,1-.77.33Zm.28-.9a.63.63,0,0,0-.59.42.17.17,0,0,0,0,.14.48.48,0,0,0,.29.09.77.77,0,0,0,.58-.24h0a.24.24,0,0,0,.07-.22A.18.18,0,0,0,304,196a.17.17,0,0,0-.1,0h-.19Z" style="fill:#263238"></path><path d="M305.74,199.44a.46.46,0,0,1-.34-.14.69.69,0,0,1-.13-.56,1.08,1.08,0,0,1,.16-.42l0,0a.82.82,0,0,1,.25-.24l.1.09-.07-.11a.47.47,0,0,1,.36-.07.24.24,0,0,1,.14.1l0,0a.73.73,0,0,1,.14.82.76.76,0,0,1-.64.54Zm.26-1.24a.27.27,0,0,0-.14,0l0,0a.46.46,0,0,0-.17.17.91.91,0,0,0-.15.34.43.43,0,0,0,.08.35.16.16,0,0,0,.16.06.57.57,0,0,0,.42-.38h0a.49.49,0,0,0-.07-.54l0,0,0,0S306,198.2,306,198.2Z" style="fill:#263238"></path><path d="M319.47,171.23,336,196.45s16.13-29,18.46-38.86c2.63-11.11-3.62-10-12.9-4.41S319.47,171.23,319.47,171.23Z" style="fill:#c7c7c7"></path><path d="M324.17,169c.7.79,5.92,8.61,7,10.34s5.66,8.73,6.64,10.6c.05.09-.06.17-.12.09-1.31-1.65-5.93-8.7-7.08-10.43s-6.16-9.59-6.59-10.53C324,169,324.12,169,324.17,169Z" style="fill:#263238"></path><path d="M179.28,333.7s-29.08,32-29.09,32.05c-3.36,10-6.48,18.63-8.51,23a.25.25,0,0,1,0,.07c-.76,1.63-1.37,2.64-1.77,2.83l-.08,0c-3.64,1-84-23.51-86.54-25.31s2.41-9.11,6.29-10.64,38.86-5.92,38.86-5.92l36.52-39.65Z" style="fill:#d3766a"></path><path d="M154.8,360.66l-4.61,5.08c-3.35,10-6.48,18.65-8.52,23a.13.13,0,0,1,0,.08c-.76,1.63-1.37,2.64-1.77,2.82l-.08.05c-3.64,1-84-23.51-86.54-25.31s2.41-9.1,6.29-10.64,38.87-5.92,38.87-5.92l6-6.53Z" style="fill:#ebebeb"></path><path d="M53.24,366.24c2.56,1.78,84,25.19,87.65,24.1,1.4-.38,9.25-24.44,9.3-24.59L98.72,347.92l-.23.9s-35.18,5-39.08,6.59S50.66,364.48,53.24,366.24Z" style="fill:#2783FF"></path><path d="M94,347.71c5.69.54,12,3.27,15.08,8.3.11.2-.17.36-.33.26a78.81,78.81,0,0,0-14.93-7.87A.36.36,0,0,1,94,347.71Z" style="fill:#263238"></path><path d="M89.45,348.94c5.69.54,12.06,3.27,15.08,8.3.12.2-.16.36-.32.26a79.74,79.74,0,0,0-14.93-7.88A.35.35,0,0,1,89.45,348.94Z" style="fill:#263238"></path><path d="M84.88,350.17c5.69.54,12.06,3.27,15.08,8.3.11.2-.16.36-.32.26a79.24,79.24,0,0,0-14.94-7.88A.36.36,0,0,1,84.88,350.17Z" style="fill:#263238"></path><path d="M52.83,363c-1.62.14-2.71,5.12-1.77,5.82s89.83,25.82,91.44,25.92,2.6-5.48.93-6.26S52.83,363,52.83,363Z" style="fill:#263238"></path><path d="M135,368.86c6.75-1.25,8.71,9.24,1.95,10.5S128.25,370.12,135,368.86Z" style="fill:#fff"></path><path d="M150.19,365.74c-.05.16-7.9,24.22-9.3,24.6-2.37.71-37.24-8.83-62.29-16.15l54.61-14.33Z" style="fill:#030402;opacity:0.1"></path><path d="M100.14,344.35l55.22,20.3s65.2-73,70.11-77.85c2.46-2.4,99.19-2.09,117.85-13.6,24.24-14.95,13.51-51.26,13.51-51.26l-51.42-8.51s-8.49,12.53-11,14c-1.68,1-92.39,8.19-110.66,25C157.51,276.52,100.14,344.35,100.14,344.35Z" style="fill:#2783FF"></path><path d="M100.14,344.35l55.22,20.3s65.2-73,70.11-77.85c2.46-2.4,99.19-2.09,117.85-13.6,24.24-14.95,13.51-51.26,13.51-51.26l-51.42-8.51s-8.49,12.53-11,14c-1.68,1-92.39,8.19-110.66,25C157.51,276.52,100.14,344.35,100.14,344.35Z" style="fill:#030402;opacity:0.4"></path><path d="M113.24,334.51c3.14,1,6.2,2.27,9.28,3.41l9.25,3.47c6.17,2.33,12.32,4.71,18.47,7.08,3.48,1.34,6.89,2.88,10.32,4.33a.12.12,0,0,1-.08.22c-6.29-2-12.51-4.16-18.68-6.52s-12.28-4.79-18.37-7.31c-3.44-1.42-7-2.72-10.31-4.36A.17.17,0,1,1,113.24,334.51Z" style="fill:#263238"></path><path d="M217.06,281.73a11.15,11.15,0,0,1,5.21-2.61c2-.47,88.76-4.8,108.63-9.61A24.3,24.3,0,0,0,346,257.78c4.32-7.85,5.42-16.76,5.72-25.59.08-2.28.07-4.56.07-6.84,0-.15.23-.17.23,0,0,9,.18,18.14-2.61,26.77-2.29,7.09-7.53,13.82-14.39,17-12.58,5.92-107.74,10.44-110,10.74a13.43,13.43,0,0,0-6.14,1.93c-1.59,1.12-58.95,62.9-60.11,64.81-.15.24-.53.08-.4-.19C160.33,342.3,215.72,283,217.06,281.73Z" style="fill:#263238"></path><path d="M212,331.08S189.33,367.91,189.33,368c-1.46,10.41-2.92,19.51-4.12,24.15a.1.1,0,0,1,0,.07c-.45,1.75-.86,2.85-1.22,3.11,0,0,0,.05-.07.06-3.39,1.66-86.92-7.56-89.73-8.87s.69-9.4,4.22-11.62,37.1-13,37.1-13L164,316.13Z" style="fill:#d3766a"></path><path d="M192.92,362.1c-2.15,3.49-3.58,5.83-3.59,5.85-1.45,10.41-2.92,19.51-4.12,24.14a.16.16,0,0,1,0,.09c-.45,1.74-.86,2.84-1.22,3.1l-.06.06c-3.4,1.67-86.93-7.56-89.74-8.87s.69-9.39,4.21-11.62,37.11-13,37.11-13l4.7-7.53Z" style="fill:#ebebeb"></path><path d="M94.14,386.37c2.85,1.27,87.2,9.21,90.6,7.47,1.3-.64,4.57-25.74,4.59-25.89l-53.88-8-.06.92s-33.65,11.4-37.19,13.71S91.29,385.11,94.14,386.37Z" style="fill:#2783FF"></path><path d="M130.8,360.61c5.69-.52,12.46,1,16.36,5.37.15.17-.1.38-.27.31a79,79,0,0,0-16.13-5A.36.36,0,0,1,130.8,360.61Z" style="fill:#263238"></path><path d="M126.53,362.66c5.7-.52,12.46,1,16.36,5.38.15.17-.1.38-.27.3a79,79,0,0,0-16.13-5A.36.36,0,0,1,126.53,362.66Z" style="fill:#263238"></path><path d="M122.26,364.71c5.7-.51,12.46,1,16.36,5.38.15.17-.09.38-.27.31a78.86,78.86,0,0,0-16.13-5A.36.36,0,0,1,122.26,364.71Z" style="fill:#263238"></path><path d="M93.14,383.22c-1.57.44-1.72,5.54-.67,6s93.06,8.77,94.66,8.56,1.54-5.86-.24-6.32S93.14,383.22,93.14,383.22Z" style="fill:#263238"></path><path d="M175,373.82c6.4-2.49,10.27,7.46,3.85,9.95S168.58,376.3,175,373.82Z" style="fill:#fff"></path><path d="M136.89,355.33l56.39,9.53s50.54-70.94,56.36-75.7c4.2-3.44,88.72,10.77,106.87-8.2,11.75-12.28,7.18-57.89,7.18-57.89l-58.36-9.64s-.52,12.3,1.93,23c0,0-74.7-2.05-91.17,7.76C197.11,255.49,136.89,355.33,136.89,355.33Z" style="fill:#2783FF"></path><path d="M136.89,355.33l56.39,9.53s50.54-70.94,56.36-75.7c4.2-3.44,88.72,10.77,106.87-8.2,11.75-12.28,7.18-57.89,7.18-57.89l-58.36-9.64s-.52,12.3,1.93,23c0,0-74.7-2.05-91.17,7.76C197.11,255.49,136.89,355.33,136.89,355.33Z" style="fill:#030402;opacity:0.4"></path><path d="M299.83,231.7a31.26,31.26,0,0,1,5.22,2.58c1.75,1,3.46,2.07,5.11,3.21a110.42,110.42,0,0,1,9.37,7.34c.09.08,0,.21-.13.14-3.22-2.35-6.59-4.53-10-6.64l-4.89-3a57,57,0,0,1-4.93-3.13C299.4,232,299.58,231.61,299.83,231.7Z" style="fill:#263238"></path><path d="M306.12,216.33c.3,3.07.5,6.14.9,9.19.18,1.4.36,2.82.67,4.2.26,1.16.72,2.51,2,2.95,1.42.51,2-.68,2.09-1.91a41.09,41.09,0,0,0-.13-4.15c-.08-1.58-.64-9.27-.35-9.5a.12.12,0,0,1,.14,0,13.82,13.82,0,0,1,.63,3.23c.19,1.47.38,3,.52,4.42s.28,2.95.41,4.43a6.79,6.79,0,0,1-.21,3.32,2.53,2.53,0,0,1-2.6,1.53c0,.11.08.21.11.31.08.31.13.64.2.95s.12.64.16,1a2.46,2.46,0,0,1,0,.47c0,.17-.06.33-.07.51a.25.25,0,0,1-.48.09c-.05-.16-.15-.29-.21-.45a2.44,2.44,0,0,1-.14-.53c-.06-.31-.1-.61-.13-.93s-.07-.62-.08-.93a3.32,3.32,0,0,1,0-.55,3.38,3.38,0,0,1-1.61-.91,5.81,5.81,0,0,1-1.36-3c-.26-1.3-.41-2.62-.56-3.93a55.28,55.28,0,0,1-.45-9.79A.28.28,0,0,1,306.12,216.33Z" style="fill:#263238"></path><path d="M337.62,225.92c.05,1.5,0,3,.11,4.51s.29,2.95.55,4.4a14.89,14.89,0,0,0,1.22,4.08,14.48,14.48,0,0,0,2.43,3.35,24.81,24.81,0,0,0,6.35,4.9,31.54,31.54,0,0,0,3.68,1.72c.66.25,1.33.47,2,.67a4.47,4.47,0,0,1,1.6.63.34.34,0,0,1-.12.57,6.17,6.17,0,0,1-3.08-.36,23.47,23.47,0,0,1-3.19-1.08,23.92,23.92,0,0,1-5.8-3.54,19.73,19.73,0,0,1-4.54-5,14.73,14.73,0,0,1-1.85-6.48,30.47,30.47,0,0,1,.34-8.37A.15.15,0,0,1,337.62,225.92Z" style="fill:#263238"></path><path d="M147.85,346.46c3,.22,6,.78,8.91,1.19l8.9,1.24c5.93.85,11.85,1.75,17.78,2.64,3.36.5,6.68,1.21,10,1.84a.12.12,0,0,1,0,.23c-6-.52-11.92-1.17-17.86-2.05s-11.85-1.82-17.75-2.88c-3.33-.59-6.73-1-10-1.87A.17.17,0,0,1,147.85,346.46Z" style="fill:#263238"></path><path d="M359.14,242.77c-.26,8.43-2.65,31-9.87,35.83-11.26,6.35-33,5.45-46,5.49-14.07-.24-28.1-1.11-42.15-1.69-2.34-.09-4.68-.16-7-.17-2.73.15-6-.34-8.35,1-6.69,5.62-11.71,13-17.2,19.73-11.43,14.85-22.41,30.06-33.26,45.34,13.26-19.32,26.57-38.66,41.37-56.86,2.69-3.13,5.27-6.43,8.58-8.95,2.57-1.57,6-1,8.86-1.2,2.36,0,4.7.06,7,.14,14.05.51,28.09,1.47,42.14,1.74a254.75,254.75,0,0,0,28.05-.68c5.75-.64,11.69-1.3,16.89-3.95,7.64-3.66,10.55-27.68,10.92-35.78Z" style="fill:#263238"></path><path d="M138.74,355.38l-1.85,0h0v0q14.69-24.57,30.27-48.57c10.45-16,21.09-31.83,32.86-46.87a112.44,112.44,0,0,1,12-13.33,24,24,0,0,1,2.92-2.2,26.35,26.35,0,0,1,6.75-2.65,106.51,106.51,0,0,1,14.11-2.64c23.7-2.86,47.65-3,71.47-2.63-19.06,0-38.15.46-57.15,2-10,.93-20.2,1.81-29.89,4.67a21.58,21.58,0,0,0-4.8,2.08,9.53,9.53,0,0,0-1.42,1c-5.06,4.11-9.13,9.28-13.22,14.35-23.31,30.16-43.51,62.64-63.88,94.83v0l1.85.07Z" style="fill:#263238"></path><path d="M365.83,258.37c-.25.11-72.92-31.62-73.25-32.65-.46-1.46,41.63-66.15,58.79-75.16,4.93-2.58,17.22-3.91,20.93,3.4,7.85,15.5,5.08,54.67,2.94,66.16C371.73,239.06,366.72,258,365.83,258.37Z" style="fill:#ebebeb"></path><path d="M373.3,156.21,356,149a21.76,21.76,0,0,1,2.64-.39l13.83,5.75C372.78,155,373,155.56,373.3,156.21Zm1.3,3.91-23.08-9.63-.15.08a15.54,15.54,0,0,0-1.35.79l25,10.43C374.88,161.22,374.74,160.67,374.6,160.12Zm1.18,5.35-28.69-12c-.38.31-.79.65-1.19,1l30.16,12.59C376,166.55,375.88,166,375.78,165.47Zm.77,5.2-33.17-13.84-1.09,1,34.44,14.37C376.68,171.71,376.62,171.19,376.55,170.67Zm.5,5.08L340,160.27c-.34.35-.68.7-1,1.08l38.2,15.93C377.13,176.77,377.1,176.25,377.05,175.75Zm.29,5-40.6-16.94-1,1.09,41.64,17.37C377.38,181.75,377.37,181.24,377.34,180.73Zm.15,4.93-43.85-18.3c-.31.37-.63.75-.95,1.11l44.81,18.69C377.51,186.66,377.5,186.16,377.49,185.66Zm0,4.87L330.62,171l-.91,1.13L377.49,192C377.5,191.52,377.5,191,377.5,190.53Zm-.08,4.84-49.73-20.75c-.29.37-.6.75-.89,1.13l50.56,21.09C377.39,196.36,377.4,195.86,377.42,195.37Zm-.19,4.78-52.4-21.86c-.3.37-.59.75-.88,1.13l53.2,22.2C377.18,201.14,377.2,200.64,377.23,200.15ZM377,204.9,322,182c-.29.38-.58.76-.85,1.14l55.69,23.24C376.87,205.88,376.91,205.4,377,204.9Zm-.38,4.7-57.35-23.9c-.28.38-.56.76-.85,1.13l58.06,24.22C376.48,210.58,376.53,210.1,376.57,209.6Zm-.48,4.68-59.6-24.86c-.27.39-.55.77-.84,1.15l60.26,25.13C376,215.25,376,214.77,376.09,214.28ZM313.8,193.16c-.28.39-.56.77-.82,1.16l62.23,26,0-.15c.07-.39.15-.81.21-1.25Zm-2.67,3.75q-.4.6-.81,1.17l64,26.7c.1-.46.18-.92.27-1.38Zm-2.61,3.78c-.28.39-.56.77-.81,1.16l65.71,27.42c.11-.46.2-.92.29-1.38Zm-2.61,3.79c-.27.39-.53.78-.8,1.16l67.37,28.1.3-1.38Zm-2.57,3.78c-.25.4-.52.8-.77,1.19l68.9,28.74c.11-.45.21-.91.32-1.37Zm-2.52,3.82c-.26.4-.51.79-.78,1.17l70.4,29.37c.1-.45.21-.91.32-1.36Zm-2.48,3.83-.77,1.18L369.34,247c.12-.43.23-.89.34-1.35Zm-2.44,3.85c-.26.43-.51.81-.74,1.19l73,30.46c.13-.43.24-.88.38-1.34Zm-2.34,3.9c-.28.49-.5.91-.66,1.22l74,30.87c.12-.4.26-.84.42-1.33Z" style="fill:#030402;opacity:0.1"></path><path d="M353.32,159.79c2.64.79,11.29-3,15.07-7.89.26-.33,1.05-15.28,1.51-18.22.1-.6-19.17,1.58-19.17,1.58a47.56,47.56,0,0,1,0,11.58,6.1,6.1,0,0,1-.32,1.19c0,.06,0,.12-.05.2C349.62,150.46,349.45,158.62,353.32,159.79Z" style="fill:#d3766a"></path><path d="M368.7,133.59c-1.4,4.35-6.22,16.41-16.47,15a13.18,13.18,0,0,1-1.88-.4c0-.07,0-.14.07-.2a7.94,7.94,0,0,0,.31-1.19,47.63,47.63,0,0,0,0-11.59S364.48,133.7,368.7,133.59Z" style="fill:#263238"></path><path d="M375.13,111.07c1.24,6.82-4.47,25.43-9.65,29.13-7.51,5.35-18.69,4.63-23-4.14-4.13-8.5,3.73-32.63,9.42-35.87C360.31,95.42,373.3,101,375.13,111.07Z" style="fill:#d3766a"></path><path d="M358.52,123.2s.08.09.07.14c-.42,1.25-.69,2.74.32,3.5,0,0,0,.09,0,.07C357.55,126.3,357.93,124.31,358.52,123.2Z" style="fill:#263238"></path><path d="M360,122.23c2.07.46,1,4.55-.91,4.13S358.31,121.85,360,122.23Z" style="fill:#263238"></path><path d="M350.73,121.42s-.11,0-.12.09c-.29,1.27-.84,2.69-2.1,2.82a0,0,0,0,0,0,.07C350,124.56,350.66,122.68,350.73,121.42Z" style="fill:#263238"></path><path d="M349.94,119.8c-2-.69-3.22,3.37-1.37,4S351.62,120.37,349.94,119.8Z" style="fill:#263238"></path><path d="M361.67,120.48c-.52-.29-.95-.64-1.44-1s-1-.63-1.28-1.27a.91.91,0,0,1,.41-1,2.22,2.22,0,0,1,2.22.34,3.31,3.31,0,0,1,1.47,1.84A1,1,0,0,1,361.67,120.48Z" style="fill:#263238"></path><path d="M348.88,117.09a14.43,14.43,0,0,0,1.74,0,2.78,2.78,0,0,0,1.77-.34.89.89,0,0,0,.22-1.07,2.23,2.23,0,0,0-2-1,3.29,3.29,0,0,0-2.24.71A1,1,0,0,0,348.88,117.09Z" style="fill:#263238"></path><path d="M356.29,134.42a2,2,0,0,1-1.26.47,3.5,3.5,0,0,1-1.28-.67,0,0,0,0,0-.08.05,1.78,1.78,0,0,0,1.44,1.1,1.4,1.4,0,0,0,1.29-.86C356.43,134.44,356.34,134.39,356.29,134.42Z" style="fill:#263238"></path><path d="M355.94,130.28a4.51,4.51,0,0,1-3.38,1.17,5.78,5.78,0,0,1-1.58-.33l-.28-.11-.27-.12a.33.33,0,0,1-.18-.35h0a.31.31,0,0,1,.05-.12h0l0-.11c.23-1,.71-2.45.71-2.45-.41.09-2.44.43-2.28-.07a67.16,67.16,0,0,1,5.07-12.64.12.12,0,0,1,.22.09c-1.14,4-3,7.87-4.18,11.92a7.91,7.91,0,0,1,2.2-.09c.12.08-1,2.81-1.05,3.26v.05a6.16,6.16,0,0,0,4.83-.23C356,130.08,356,130.19,355.94,130.28Z" style="fill:#263238"></path><path d="M372.74,106c1.62,1.79,7.48,2.06,10.17-.56,3.71-3.6-.32-11.47-5.93-10S371.5,104.65,372.74,106Z" style="fill:#263238"></path><path d="M383.06,98a10.24,10.24,0,0,1,1.56,4.76,4.08,4.08,0,0,1-.55,2.27,4.14,4.14,0,0,1-1.75,1.53,9.57,9.57,0,0,1-2.34.76,10.87,10.87,0,0,1-2.48.24,8.51,8.51,0,0,1-4.76-1.5,7.39,7.39,0,0,0,4.72,2.16,10,10,0,0,0,2.67-.12,9.33,9.33,0,0,0,2.57-.8,4.86,4.86,0,0,0,2.05-1.87,4.55,4.55,0,0,0,.52-2.71A8.72,8.72,0,0,0,383.06,98Z" style="fill:#263238"></path><path d="M372,129.43a113.61,113.61,0,0,1-4.95-12.29c-.62-2.21,1.83-9.89,1.89-10.08a5.47,5.47,0,0,1,2.8-2.79,14.74,14.74,0,0,1,3.26,6.18C376,114.54,374.39,122.6,372,129.43Z" style="fill:#263238;opacity:0.30000000000000004"></path><path d="M373.28,103.85c2,2.26-5.56,4.63-6.73,4.71s.64-2.19.64-2.19-4.36,3.91-7.08,4.47a18.64,18.64,0,0,1-5.76.08l4-3.17s-7.5,4.37-11.7,4.46a12.09,12.09,0,0,0-6.94,2.36s.57-9.43,3.35-12a28,28,0,0,1,6-4.12l-5.33.2s4.5-2.36,7.56-2.65,9.26,1,9.26,1l-3.72-2.58a15.36,15.36,0,0,1,6.68.69,47.91,47.91,0,0,1,6.93,4.24L368,96.6s2.7.37,3.79,1.91S373.28,103.85,373.28,103.85Z" style="fill:#263238"></path><path d="M359.84,131.94a6.32,6.32,0,0,0-3.81-3.33,9.91,9.91,0,0,0-5.73-.5c-2.53.57-3.31,2.11-3.76,5s-.32,7.33.54,8.46a12.78,12.78,0,0,0,7.58,3.61,12.24,12.24,0,0,0,6.66-1.75C362.74,142.32,360.6,133.62,359.84,131.94Zm-2.53,4.71a7.12,7.12,0,0,1-3.61.67c-1.65-.07-3.82-.73-4.3-1.32s-.56-3.36-.34-4.83.64-2.27,2-2.54a5.89,5.89,0,0,1,3.17.31,3.62,3.62,0,0,1,2.13,1.76C356.83,131.57,358.09,136.11,357.31,136.65Z" style="fill:#263238"></path><path d="M369.25,126.1s5.13-5.55,7.71-3.63-1.88,10.36-5.32,11.12a3.35,3.35,0,0,1-4.2-2.4Z" style="fill:#d3766a"></path><path d="M375.62,124.86c.05,0,.05.07,0,.09-2.42.61-3.92,2.57-5.07,4.65a1.85,1.85,0,0,1,2.81-.12c.06.05,0,.14-.08.12a2,2,0,0,0-2.34.4,9.3,9.3,0,0,0-1.33,1.67c-.14.19-.49,0-.38-.2a.08.08,0,0,0,0-.05C369.61,128.49,372.44,124.72,375.62,124.86Z" style="fill:#263238"></path><rect x="274.84" y="265.06" width="37.83" height="14.51" style="fill:#455a64"></rect><polygon points="312.68 279.57 366.33 255.23 366.33 240.71 312.68 265.06 312.68 279.57" style="fill:#37474f"></polygon><polygon points="274.84 265.06 328.5 240.71 366.33 240.71 312.68 265.06 274.84 265.06" style="fill:#455a64"></polygon><rect x="366.33" y="240.71" width="26.5" height="14.51" style="fill:#37474f"></rect><path d="M375,161.67c3.57,20.53,4.49,65.68-1.88,70.68-12.51,9.82-36,19.06-44.2,21.43-4.2,1.21-19.58-23.37-15.92-26.28,5.39-4.28,37.75-18.73,38.44-20.29s4.32-22.25,9.78-39.07C367.6,148.62,373.08,150.4,375,161.67Z" style="fill:#d3766a"></path><path d="M317,225.79s-12.8.7-19.41,3.15c-8.86,3.28-15.15,9.76-17.62,12.64-5.16,6-13.49,24.08-8.71,27.38,4.34,3,11.92-15.91,11.92-15.91s-10.91,18-5,20.65,13.43-19.8,13.43-19.8-10.79,18.74-4.3,20.51c4.91,1.34,12.9-18.61,12.9-18.61S291,272,296,273.57c5.51,1.76,14-16.19,14-16.19,13.37,1.92,20.51-2.64,25.21-6.48C336.39,250,317,225.79,317,225.79Z" style="fill:#d3766a"></path><path d="M286.56,246.58c-1.36,2.07-2.75,4.16-3.92,6.34s-2.27,4.4-3.23,6.68a42.52,42.52,0,0,0-2.9,9.24c1.5-5.56,5.57-13.44,6.74-15.62s2.22-4.42,3.39-6.6C286.67,246.57,286.59,246.53,286.56,246.58Z" style="fill:#263238"></path><path d="M294.51,250.66c-1.62,2.72-3.33,5.36-4.83,8.15s-2.67,5.53-4,8.4c-.1.22,0,.21.16,0,1.41-2.82,2.93-5.31,4.38-8.11s2.78-5.66,4.32-8.39A0,0,0,0,0,294.51,250.66Z" style="fill:#263238"></path><path d="M302,252.94a70.58,70.58,0,0,0-6.43,13c-.09.23.1.18.21,0,2.05-4.37,3.63-7.81,6.36-12.88C302.15,253,302,252.85,302,252.94Z" style="fill:#263238"></path><path d="M354.88,188.84l28.18,10.78s-3.88-33-7.76-42.33c-4.36-10.54-8.8-6-13,4S354.88,188.84,354.88,188.84Z" style="fill:#c7c7c7"></path><path d="M357.41,184.32c1,.23,9.84,3.52,11.74,4.28s9.7,3.77,11.59,4.71c.09.05.05.17-.05.14-2-.56-9.9-3.58-11.85-4.31s-10.59-4.18-11.49-4.69C357.27,184.41,357.34,184.31,357.41,184.32Z" style="fill:#263238"></path></g><g id="freepik--character-2--inject-64"><path d="M401.33,163.23s-10.6-8.24-21.65-2.67c-13.76,6.94-7.61,46.47-8.09,54s-6.41,10.43,1.79,15.86,18.59,5.93,28.79,4,17.21-7.54,18-12.33c.5-2.93-2.14-5.27-3.26-9.84C416.28,209.56,415.45,162.62,401.33,163.23Z" style="fill:#263238"></path><path d="M420.06,216.36c-.6-3.12-1.9-6-2.35-9.15s-2.69-21.35-2.89-24.48c-.52-8-3.16-20.13-13.48-19.25a.16.16,0,0,0,0,.31c12.91.24,12.73,18.46,14.6,36.23a72.84,72.84,0,0,0,2.6,13c1.7,5.36,1.77,10.24-2,14.77-.08.1.06.24.15.14A13.43,13.43,0,0,0,420.06,216.36Z" style="fill:#263238"></path><path d="M400.69,166.71c-5.57-3.64-12.05-6.55-18.76-3.86-5.81,2.32-9.16,8-10.58,13.66-2,7.86.76,30.67-1.51,38.49-.8,2.76-3.09,5.78-2.65,8.78.39,2.67,2.62,3.38,5.07,3.74.13,0,.19-.17.06-.19-6-1.1-4.61-5.16-3-9.08a34.72,34.72,0,0,0,2.18-8.5c.77-5.82-1-26.26.18-32,1.19-5.61,4-11.33,9.48-14.09,6.92-3.46,13.5-.37,19.5,3.18C400.7,166.86,400.76,166.75,400.69,166.71Z" style="fill:#263238"></path><path d="M398.81,162.32c2.72,1.47,9.94-.68,12.1-5,3-5.94-5.27-13.77-11.44-9.54S396.71,161.18,398.81,162.32Z" style="fill:#263238"></path><path d="M407.89,148.15a13.26,13.26,0,0,1,3.92,5.11,5.24,5.24,0,0,1,.3,3,5.32,5.32,0,0,1-1.47,2.6,12.07,12.07,0,0,1-2.52,1.92,13.92,13.92,0,0,1-2.9,1.35,11,11,0,0,1-6.41.2,9.48,9.48,0,0,0,6.64.61,13.15,13.15,0,0,0,3.19-1.28,12.47,12.47,0,0,0,2.77-2.06,6.11,6.11,0,0,0,1.69-3.15,5.89,5.89,0,0,0-.52-3.5A11.13,11.13,0,0,0,407.89,148.15Z" style="fill:#263238"></path><path d="M382.72,254.44c-.08-.11-8.37-10.9-9.9-19.9-1.29-7.59.19-17.85,1.5-26.9.27-1.8.52-3.57.75-5.28,1.31-9.7,0-14.72-5-19.17a13,13,0,0,0-10.58-2.8c-2.3.35-4.24,1.23-4.82,2.2l-.64-.38c.7-1.17,2.8-2.18,5.35-2.56a13.76,13.76,0,0,1,11.19,3c5.13,4.58,6.54,10,5.22,19.82-.24,1.71-.49,3.48-.75,5.29-1.31,9-2.78,19.19-1.51,26.66,1.5,8.82,9.67,19.46,9.76,19.57Z" style="fill:#263238"></path><path d="M409.25,212.3c-14.58,14.93-31.52,34.6-39.55,33.83-7.26-.69-21.53-7.2-29.95-11.57-2.4-1.24,11.13-27.53,16-24.82,7.2,4,11.31,6.89,13.74,7.16,2,.22,14-6.59,34.53-14.77C415.16,197.67,414.68,206.74,409.25,212.3Z" style="fill:#f7a9a0"></path><path d="M325.26,223.15c4.1,4.56,16.11,13.39,19.57,13.73s14.69-19.44,13.26-22.71-14.78-18.43-20.95-19.45S321,218.43,325.26,223.15Z" style="fill:#2783FF"></path><polygon points="343.36 236.46 352.24 241.38 365.74 214.97 359.61 210.53 343.36 236.46" style="fill:#2783FF"></polygon><rect x="334.25" y="202.03" width="3.73" height="23.25" transform="translate(153.51 -140.29) rotate(30.27)" style="fill:#c7c7c7"></rect><polygon points="329.08 227.5 327.51 226.59 328.65 222.75 331.87 224.63 329.08 227.5" style="fill:#c7c7c7"></polygon><polygon points="328.09 226.93 328.5 227.17 325.6 231.67 328.09 226.93" style="fill:#c7c7c7"></polygon><rect x="334.73" y="202.56" width="12.61" height="5.32" transform="matrix(0.86, 0.5, -0.5, 0.86, 149.93, -143.92)" style="fill:#37474f"></rect><rect x="331.53" y="208.05" width="12.61" height="5.32" transform="translate(152.25 -141.56) rotate(30.27)" style="fill:#37474f"></rect><rect x="328.33" y="213.53" width="12.61" height="5.32" transform="translate(154.58 -139.2) rotate(30.27)" style="fill:#37474f"></rect><rect x="345.51" y="180.77" width="5.71" height="23.78" transform="translate(144.59 -149.32) rotate(30.27)" style="fill:#263238"></rect><rect x="354.22" y="189.61" width="19.29" height="2.59" transform="translate(145.82 -157.37) rotate(30.27)" style="fill:#37474f"></rect><rect x="345.63" y="204.32" width="19.29" height="2.59" transform="matrix(0.86, 0.5, -0.5, 0.86, 152.07, -151.04)" style="fill:#37474f"></rect><rect x="351.49" y="188.73" width="8.24" height="14.44" transform="translate(147.24 -152.53) rotate(30.27)" style="fill:#2783FF"></rect><rect x="351.49" y="188.73" width="8.24" height="14.44" transform="translate(147.24 -152.53) rotate(30.27)" style="fill:#fff;opacity:0.4"></rect><rect x="352.89" y="187.82" width="2.32" height="14.44" transform="translate(146.56 -151.86) rotate(30.27)" style="fill:#fff;opacity:0.2"></rect><rect x="359.01" y="193.12" width="8.24" height="14.44" transform="translate(150.48 -155.72) rotate(30.27)" style="fill:#2783FF"></rect><rect x="359.01" y="193.12" width="8.24" height="14.44" transform="translate(150.48 -155.72) rotate(30.27)" style="fill:#fff;opacity:0.4"></rect><rect x="360.41" y="192.21" width="2.32" height="14.44" transform="translate(149.81 -155.06) rotate(30.27)" style="fill:#fff;opacity:0.2"></rect><path d="M346.32,198.19c.61,3.19-3.5,2.08-3.5,2.08s5.54,3,4.89,6.56-5.54,1.89-5.9,1.79c.29.16,5.3,3.07,4.29,6.55s-5.73,1.26-6,1.1c.23.24,3.17,3.46,1.8,5.93-2.36,4.25-10.12-3.77-14.05-3.67,0,0-2.2,4.78-2.26,5,0,0-5.93-5.58-5.77-10.9a3.39,3.39,0,0,1,2.71-3.27s-2.7-2.14-2-4.91c.37-1.42,3-2.1,3-2.1a4.23,4.23,0,0,1-1.3-4.23c.62-1.93,3.13-2.31,3.13-2.31s-1.2-2.66.08-4.43C328,187.77,345,191.36,346.32,198.19Z" style="fill:#2783FF"></path><path d="M325.7,195.66a0,0,0,0,1,0-.09,30.18,30.18,0,0,1,17.35,4.74c.16.11.06.42-.14.33A62.24,62.24,0,0,0,325.7,195.66Z" style="fill:#263238"></path><path d="M323.4,202.27c-.06,0,0-.12,0-.12A28.28,28.28,0,0,1,342,208.5c.18.15.19.47,0,.31C338.3,206.08,329,203,323.4,202.27Z" style="fill:#263238"></path><path d="M340.32,216.71c-5.16-4.12-11.13-6.17-17.57-7.4-.08,0-.05-.13,0-.14,3.31-.26,7.33,1,10.38,2.16a17.37,17.37,0,0,1,7.32,5.2C340.55,216.62,340.43,216.8,340.32,216.71Z" style="fill:#263238"></path><path d="M342.82,200.27a19.65,19.65,0,0,1,2.82,2.3,6.57,6.57,0,0,1,1.88,2.92,2.2,2.2,0,0,1-.17,1.56,3.29,3.29,0,0,1-1.1,1.18,3.9,3.9,0,0,1-3.16.21l-2.54-.82,2.1,1.65a10.93,10.93,0,0,1,2.41,2.58,3.91,3.91,0,0,1,.71,3.11,2.24,2.24,0,0,1-2.18,1.77,6.76,6.76,0,0,1-3.25-.91l-2.79-1.49,2.14,2.31a10.32,10.32,0,0,1,1.51,2.12,4.25,4.25,0,0,1,.58,2.37,2,2,0,0,1-1.29,1.68,4.46,4.46,0,0,1-2.48-.17,36.1,36.1,0,0,1-5-2.21c-.83-.41-1.66-.83-2.51-1.2a6.62,6.62,0,0,0-2.68-.7,7,7,0,0,1,2.57.93c.81.43,1.6.91,2.4,1.38a29.91,29.91,0,0,0,5,2.52,5.1,5.1,0,0,0,3,.3,2.85,2.85,0,0,0,2-2.4,5.25,5.25,0,0,0-.63-3,11.49,11.49,0,0,0-1.66-2.39l-.65.82a7.74,7.74,0,0,0,3.83,1.11,3.24,3.24,0,0,0,2.05-.75,3.73,3.73,0,0,0,1.12-1.85,4.93,4.93,0,0,0-.89-3.94,11.77,11.77,0,0,0-2.7-2.8l-.43.83a4.64,4.64,0,0,0,3.89-.46,4,4,0,0,0,1.28-1.53,2.88,2.88,0,0,0,.14-2,6.83,6.83,0,0,0-2.23-3A16.42,16.42,0,0,0,342.82,200.27Z" style="fill:#263238"></path><path d="M357.78,217.22s2.69-3.58,2-6.13c-2.23-8.06-10.32-24-18.55-17.32-2.62,2.11-9.34,15-6.83,16.42,3.23,1.87,7.11-2.85,9.08-6.2,0,0,1.67,8.78,8.14,9.44A8.89,8.89,0,0,1,357.78,217.22Z" style="fill:#2783FF"></path><path d="M341.93,193.15A13.11,13.11,0,0,0,339.2,196a29.29,29.29,0,0,0-2.16,3.34,45.41,45.41,0,0,0-3.34,7.25,7.53,7.53,0,0,0-.43,2.07,2.79,2.79,0,0,0,.2,1.19,2,2,0,0,0,.35.57,1.85,1.85,0,0,0,.52.42,3.37,3.37,0,0,0,2.29.35,6.28,6.28,0,0,0,2-.83,12.19,12.19,0,0,0,3-2.82,27.42,27.42,0,0,0,2.24-3.34l-.85-.16a15.17,15.17,0,0,0,1,2.9,14.48,14.48,0,0,0,1.47,2.64,10.06,10.06,0,0,0,2.09,2.18,7.88,7.88,0,0,0,2.66,1.35,8.9,8.9,0,0,1-2.45-1.59,10.68,10.68,0,0,1-1.82-2.26,14.85,14.85,0,0,1-1.26-2.6,15.47,15.47,0,0,1-.75-2.78l-.19-1.16-.65,1a31,31,0,0,1-2.26,3.15,11.63,11.63,0,0,1-2.76,2.54c-1,.62-2.29,1-3.16.47s-.56-1.81-.2-3a36.63,36.63,0,0,1,1.36-3.65c.5-1.21,1-2.41,1.6-3.58A24.73,24.73,0,0,1,341.93,193.15Z" style="fill:#263238"></path><path d="M369,216.73a24.45,24.45,0,0,1,7.58,11.41c-2.42-3.75-5.26-7.59-7.58-11.41Z" style="fill:#263238"></path><path d="M386.61,235.92l-10.47-22.34s17.48-8.17,25.73-11.46c8-3.19,18.85-4,9.78,8.14C402.92,222,386.61,235.92,386.61,235.92Z" style="fill:#2783FF"></path><path d="M389.22,230.57a151.55,151.55,0,0,0-8.85-17.74c0-.09-.17,0-.12.07.91,1.63,4.68,10.2,8.83,17.75C389.13,230.74,389.25,230.67,389.22,230.57Z" style="fill:#263238"></path><path d="M411.65,210.26c-8.73,11.72-25,25.66-25,25.66l-8.51-18.16,28.18-17.06C413.1,199,419.1,200.26,411.65,210.26Z" style="fill:#030402;opacity:0.1"></path><polygon points="404.2 460.71 314.47 460.97 314.68 464.98 404.58 465.28 404.2 460.71" style="fill:#2783FF"></polygon><polygon points="404.2 460.71 314.47 460.97 314.68 464.98 404.58 465.28 404.2 460.71" style="opacity:0.2"></polygon><path d="M315.37,461.43c-2.87-1-.29-9.26,2.92-11.82a81.85,81.85,0,0,1,9.54-5c10.44-5,26.17-11,26.17-11l-10.74-39.48,47.22-.95s14.15,40.48,14.14,40.68c-.49,14.33.76,26.06-.42,26.79C401,462.7,318.26,462.41,315.37,461.43Z" style="fill:#ffc4c0"></path><path d="M397.79,409.4l-51-.39,7.2,24.66s-15.73,6-26.17,11a85.44,85.44,0,0,0-9.54,5c-3.21,2.55-5.79,10.85-2.91,11.82s85.66,1.27,88.82-.72c1.18-.73.47-27.18.44-27.37C404.35,431.61,397.79,409.4,397.79,409.4Z" style="fill:#263238"></path><path d="M356.92,423.15a12.4,12.4,0,0,1,12.7,4.13c.14.17,0,.42-.13.35A47.33,47.33,0,0,0,357,423.9C356.73,423.86,356.63,423.22,356.92,423.15Z" style="fill:#2783FF"></path><path d="M355.25,426.37a12.42,12.42,0,0,1,12.7,4.14c.15.16,0,.41-.12.35a47.18,47.18,0,0,0-12.46-3.73C355.07,427.08,355,426.45,355.25,426.37Z" style="fill:#2783FF"></path><path d="M353.59,429.6a12.42,12.42,0,0,1,12.7,4.13c.14.17,0,.42-.13.36a47,47,0,0,0-12.46-3.74C353.4,430.31,353.3,429.67,353.59,429.6Z" style="fill:#2783FF"></path><path d="M351.92,432.82a12.42,12.42,0,0,1,12.7,4.14c.15.16,0,.41-.12.35A47.18,47.18,0,0,0,352,433.58C351.74,433.53,351.64,432.9,351.92,432.82Z" style="fill:#2783FF"></path><path d="M347.77,435.08a12.43,12.43,0,0,1,12.71,4.13c.14.17,0,.42-.13.36a47,47,0,0,0-12.46-3.74C347.59,435.79,347.49,435.16,347.77,435.08Z" style="fill:#2783FF"></path><path d="M342.56,437.39a12.43,12.43,0,0,1,12.7,4.14c.15.16,0,.41-.12.35a47.59,47.59,0,0,0-12.46-3.74C342.37,438.1,342.28,437.47,342.56,437.39Z" style="fill:#2783FF"></path><path d="M337.59,439.77a12.43,12.43,0,0,1,12.7,4.14c.14.16,0,.41-.13.35a47.36,47.36,0,0,0-12.46-3.74C337.4,440.48,337.3,439.85,337.59,439.77Z" style="fill:#2783FF"></path><path d="M349.6,419.09c4.06,2.93,9.25,4,13.93,5.54.48.16.85-.31.85-.73a.15.15,0,0,0,.12-.21,29.89,29.89,0,0,0-9.07-12.49c-2.4-1.87-6.54-3.08-8.63,0C344.83,414.16,347.22,417.38,349.6,419.09ZM348,414.64c-1.21-6.09,5.49-3.11,7.21-1.66a33.27,33.27,0,0,1,3.08,3.09,88,88,0,0,1,5.45,7.18c-2.25-.9-4.55-1.6-6.83-2.41C354.2,419.87,348.68,418,348,414.64Z" style="fill:#2783FF"></path><path d="M382.85,414.5c-1.48-3.44-5.77-3-8.48-1.61a29.9,29.9,0,0,0-11.22,10.6.15.15,0,0,0,.09.23.69.69,0,0,0,.7.87c4.88-.65,10.18-.74,14.71-2.87C381.3,420.47,384.24,417.75,382.85,414.5Zm-11.72,7.59c-2.39.38-4.78.64-7.16,1.1a89.13,89.13,0,0,1,6.69-6,30.46,30.46,0,0,1,3.59-2.47c1.95-1.11,9.09-2.81,6.78,3C379.75,420.82,374,421.64,371.13,422.09Z" style="fill:#2783FF"></path><path d="M344.54,403.4l49.93-.5s-16.33-56.26-13.74-63.11c2.65-7,43.89-21.22,56.69-32.41,20.27-17.71,2.24-45,2.24-45l-45.92,0a26.3,26.3,0,0,1-3,20.06s-51.12,19.06-60,36.47C321.21,337.48,344.54,403.4,344.54,403.4Z" style="fill:#263238"></path><path d="M389,391.58a21.52,21.52,0,0,0-4.09-.26l-4.19,0-8.55,0c-5.7,0-11.39.05-17.08.23-3.21.09-6.41.32-9.61.54a.11.11,0,0,0,0,.21c11.41.54,22.79.32,34.19.05l4.66-.13a24.48,24.48,0,0,0,4.68-.36C389.08,391.79,389.06,391.6,389,391.58Z" style="fill:#37474f"></path><path d="M437.42,307.38c-3.71,3.25-9.82,6.75-16.68,10.25-4.09,0-7,.53-7.77,2.52,0,.09-62.53,30.25-81,39.13-3.47-16.22-5.32-32.53-1.3-40.38,8.91-17.41,60-36.47,60-36.47a26.3,26.3,0,0,0,3-20.06l45.92,0S457.69,289.67,437.42,307.38Z" style="fill:#030402;opacity:0.4"></path><path d="M373.05,348.4c-.43-3.78-1.35-8.11.07-11.7a13.69,13.69,0,0,1,3.86-4.33c14.74-10.6,32.57-15.87,47.79-26,3.34-2.28,6.67-4.74,9.1-8.09,6.48-10.58,5.2-20.15.81-31.26.75,1.88,1.33-.18,1.81,1.77,2.35,9.59,2.29,20.59-3.13,29.13-2.37,3.2-5.68,5.6-9,7.82-13.62,8.71-29,14.16-42.95,22.39-3.61,2.34-7.68,4.71-9.47,8.89a16.52,16.52,0,0,0-.43,5.43c.76,10.12,5.95,30.33,11.31,45.58A275.55,275.55,0,0,1,373.05,348.4Z" style="fill:#37474f"></path><rect x="404.4" y="327.63" width="7.78" height="129.91" style="fill:#dbdbdb"></rect><rect x="367.4" y="310.67" width="81.78" height="16.96" style="fill:#2783FF"></rect><polygon points="415.62 347.99 400.97 347.99 399.9 327.63 416.69 327.63 415.62 347.99" style="fill:#c7c7c7"></polygon><rect x="401.56" y="416.61" width="13.47" height="40.93" style="fill:#c7c7c7"></rect><rect x="384.6" y="457.54" width="47.39" height="7.29" style="fill:#a6a6a6"></rect><rect x="360.24" y="425.92" width="41.32" height="4.66" style="fill:#a6a6a6"></rect><polygon points="287.53 460.71 197.8 460.97 198.01 464.98 287.91 465.28 287.53 460.71" style="fill:#2783FF"></polygon><polygon points="287.53 460.71 197.8 460.97 198.01 464.98 287.91 465.28 287.53 460.71" style="opacity:0.2"></polygon><path d="M198.7,461.43c-2.87-1-.29-9.26,2.92-11.82a81.85,81.85,0,0,1,9.54-5c10.44-5,26.17-11,26.17-11l15.21-39.48,51.53-.95s-14,36.94-14.1,40.09c0,.2,0,.39,0,.59-.49,14.33-1.24,26.06-2.42,26.79C284.37,462.7,201.59,462.41,198.7,461.43Z" style="fill:#ffc4c0"></path><path d="M297.12,412.07,246.83,409l-9.5,24.66s-15.73,6-26.17,11a85.44,85.44,0,0,0-9.54,5c-3.21,2.55-5.79,10.85-2.92,11.82s85.67,1.27,88.83-.72c1.17-.73,1.93-12.46,2.42-26.79,0-.2,0-.39,0-.58C290,432.56,295.48,415.88,297.12,412.07Z" style="fill:#263238"></path><path d="M240.24,423.15A12.41,12.41,0,0,1,253,427.28c.14.17,0,.42-.13.35a47.33,47.33,0,0,0-12.46-3.73C240.06,423.86,240,423.22,240.24,423.15Z" style="fill:#2783FF"></path><path d="M238.58,426.37a12.43,12.43,0,0,1,12.7,4.14c.14.16,0,.41-.12.35a47.18,47.18,0,0,0-12.46-3.73C238.39,427.08,238.3,426.45,238.58,426.37Z" style="fill:#2783FF"></path><path d="M236.91,429.6a12.43,12.43,0,0,1,12.71,4.13c.14.17,0,.42-.13.36A47,47,0,0,0,237,430.35C236.73,430.31,236.63,429.67,236.91,429.6Z" style="fill:#2783FF"></path><path d="M235.25,432.82A12.43,12.43,0,0,1,248,437c.14.16,0,.41-.12.35a47.18,47.18,0,0,0-12.46-3.73C235.06,433.53,235,432.9,235.25,432.82Z" style="fill:#2783FF"></path><path d="M231.1,435.08a12.43,12.43,0,0,1,12.71,4.13c.14.17,0,.42-.13.36a47,47,0,0,0-12.46-3.74C230.92,435.79,230.82,435.16,231.1,435.08Z" style="fill:#2783FF"></path><path d="M225.89,437.39a12.43,12.43,0,0,1,12.7,4.14c.14.16,0,.41-.12.35A47.59,47.59,0,0,0,226,438.14C225.7,438.1,225.61,437.47,225.89,437.39Z" style="fill:#2783FF"></path><path d="M220.91,439.77a12.44,12.44,0,0,1,12.71,4.14c.14.16,0,.41-.13.35A47.36,47.36,0,0,0,221,440.52C220.73,440.48,220.63,439.85,220.91,439.77Z" style="fill:#2783FF"></path><path d="M232.93,419.09c4.06,2.93,9.25,4,13.93,5.54.48.16.85-.31.85-.73a.15.15,0,0,0,.12-.21,29.89,29.89,0,0,0-9.07-12.49c-2.4-1.87-6.54-3.08-8.63,0C228.16,414.16,230.55,417.38,232.93,419.09Zm-1.59-4.45c-1.21-6.09,5.49-3.11,7.21-1.66a33.27,33.27,0,0,1,3.08,3.09,88,88,0,0,1,5.45,7.18c-2.25-.9-4.55-1.6-6.84-2.41C237.53,419.87,232,418,231.34,414.64Z" style="fill:#2783FF"></path><path d="M266.17,414.5c-1.47-3.44-5.76-3-8.47-1.61a29.83,29.83,0,0,0-11.22,10.6.15.15,0,0,0,.09.23.69.69,0,0,0,.7.87c4.88-.65,10.17-.74,14.71-2.87C264.63,420.47,267.57,417.75,266.17,414.5Zm-11.71,7.59c-2.39.38-4.79.64-7.16,1.1a89,89,0,0,1,6.68-6,31.43,31.43,0,0,1,3.6-2.47c1.95-1.11,9.09-2.81,6.78,3C263.08,420.82,257.31,421.64,254.46,422.09Z" style="fill:#2783FF"></path><path d="M247.84,403.34l52.31,4s40.78-63.87,44.47-67.56c8.35-8.36,80.05-20.05,98.75-37.26,12.8-11.77,2-40.11,2-40.11H392.4s.57,7.54-2.08,8.36c-28.77,8.94-76.9,29.64-89.35,40.63C278.64,331.09,247.84,403.34,247.84,403.34Z" style="fill:#263238"></path><path d="M302,395.82a20.86,20.86,0,0,0-4-.65l-4.14-.43-8.44-.82c-5.62-.54-11.24-1-16.88-1.4-3.17-.21-6.35-.28-9.54-.36-.12,0-.13.19,0,.21,11.21,1.61,22.46,2.47,33.74,3.28l4.61.32a24.9,24.9,0,0,0,4.65.08C302,396,302,395.85,302,395.82Z" style="fill:#37474f"></path><path d="M440.12,264.91c5.44,10.66,7.54,21-.46,30.9-9.12,9.61-33.77,16.65-46.81,20.95-9.45,2.9-19,5.56-28.5,8.16-5.9,1.81-17.66,4.43-23.21,6.9a22.46,22.46,0,0,0-3.68,4.36c-2.87,4.06-5.51,8.24-8.13,12.43s-14.8,23.4-24.42,40.68c9.92-17.1,27.61-44.52,33.27-52.59a22.9,22.9,0,0,1,3.46-4.11c5.31-2.3,17.25-5,23-6.73,9.53-2.62,19.05-5.31,28.5-8.25,13.25-4.38,37.68-11.5,47-21.45,8-10.11,5.7-20.57,0-31.25Z" style="fill:#37474f"></path><path d="M410.09,201c.27,1.26-1.63,11.16-6.91,13.38-1.72.72-6.06-8.51-6.06-8.51l-.48-.61L390,196.71l7.76-12.49,1.16-1.72s1.67,2.45,3.72,5.52c.1.14.19.28.29.44s.24.33.34.49c.32.46.63.92.94,1.39s.46.71.69,1.09.47.75.72,1.13A70.86,70.86,0,0,1,410.09,201Z" style="fill:#f7a9a0"></path><path d="M402.62,188a21.68,21.68,0,0,1-6,17.21L390,196.71l7.76-12.49,1.16-1.72S400.57,185,402.62,188Z" style="fill:#263238"></path><path d="M370.63,184.62c2.08,18.85,13.6,19.75,17.66,19.3,3.69-.41,16.19-2.27,16.07-21.24s-9.54-24-18-23.48S368.55,165.76,370.63,184.62Z" style="fill:#f7a9a0"></path><path d="M402.65,185c-4,.23-4.81-8.88-4.81-8.88s-6.82-.78-9.92-5.16c0,0,2.14,3.83,4.89,5.28.46.24-13.3-.19-15.33-10.58,0,0-1.28,10.49-7.37,13-.29.12.54-7.94,2.69-11.24a29.42,29.42,0,0,1,3.09-4.24A19.59,19.59,0,0,1,390,158.47c8.48.63,14.6,9.08,15.49,12.65C407.21,178.16,404.54,184.85,402.65,185Z" style="fill:#263238"></path><path d="M392.39,176.45c-7.48.2-13.74-4.15-14.9-11.73a.17.17,0,0,0-.33,0c-.47,7.8,8.28,12.89,15.31,11.84C392.64,176.55,392.57,176.45,392.39,176.45Z" style="fill:#263238"></path><path d="M402.6,184.54c-4.18-1.79-5.11-5.81-5.7-9.91,0-.12-.23-.11-.22,0,.22,4.05,1.31,9,5.8,10.25A.19.19,0,0,0,402.6,184.54Z" style="fill:#263238"></path><path d="M377.3,164.05a0,0,0,0,0-.08,0c-.6,4.33-.28,11.55-5.67,13-.14,0-.1.25,0,.22C376.89,176.36,378.19,168.43,377.3,164.05Z" style="fill:#263238"></path><path d="M372.46,184.84a11.21,11.21,0,0,0,1.3-.12,2.15,2.15,0,0,0,1.3-.37.69.69,0,0,0,.09-.82,1.66,1.66,0,0,0-1.58-.57,2.45,2.45,0,0,0-1.63.68A.72.72,0,0,0,372.46,184.84Z" style="fill:#263238"></path><path d="M385.43,181.68c-.45,0-.86,0-1.3-.05a2.16,2.16,0,0,1-1.32-.31.68.68,0,0,1-.14-.81,1.68,1.68,0,0,1,1.55-.66,2.44,2.44,0,0,1,1.66.6A.72.72,0,0,1,385.43,181.68Z" style="fill:#263238"></path><path d="M383.26,186.74c0-.05.11,0,.12.1.14,1.27.53,2.71,1.74,3,0,0,0,.08,0,.08C383.69,189.88,383.2,188,383.26,186.74Z" style="fill:#263238"></path><path d="M384.2,185.25c2-.46,2.78,3.62.91,4S382.51,185.63,384.2,185.25Z" style="fill:#263238"></path><path d="M385,185.31c.4.17.83.51,1.26.47s.8-.54,1.05-1c0-.05.07,0,.08,0,.16.78,0,1.64-.81,1.91s-1.42-.34-1.76-1.09C384.8,185.49,384.88,185.25,385,185.31Z" style="fill:#263238"></path><path d="M376.2,187.79s-.09.08-.08.13c.29,1.25.41,2.73-.65,3.37,0,0,0,.08,0,.07C376.84,190.89,376.67,188.93,376.2,187.79Z" style="fill:#263238"></path><path d="M374.82,186.69c-2.06.24-1.43,4.34.48,4.11S376.54,186.49,374.82,186.69Z" style="fill:#263238"></path><path d="M374,187.09c-.29.27-.54.71-.93.8s-.84-.29-1.19-.68c0,0-.07,0-.06.06.1.79.49,1.56,1.26,1.59s1.11-.71,1.17-1.52C374.27,187.19,374.12,187,374,187.09Z" style="fill:#263238"></path><path d="M385.35,197.07c-.24.36-.44.84-.88,1a3.4,3.4,0,0,1-1.42,0s-.07,0,0,.08a1.76,1.76,0,0,0,1.75.31,1.39,1.39,0,0,0,.72-1.34C385.48,197,385.38,197,385.35,197.07Z" style="fill:#263238"></path><path d="M379.26,193.42s.07,1.94.22,2.83c0,.08.24.09.55.05h0A4.29,4.29,0,0,0,383.9,194c0-.09-.08-.17-.16-.1a6.47,6.47,0,0,1-3.67,1.79c-.11-.24,0-3.32-.15-3.3a7.65,7.65,0,0,0-1.94.81c-.26-4,.12-8.06-.2-12.07a.12.12,0,0,0-.24,0,64.32,64.32,0,0,0-.34,13C377.21,194.63,378.93,193.64,379.26,193.42Z" style="fill:#263238"></path><path d="M386.42,193.34a6,6,0,0,1-5.9-6.12h0a6,6,0,1,1,7.38,6A5.6,5.6,0,0,1,386.42,193.34Zm-5.09-6.1a5.2,5.2,0,1,0,5.3-5.11,5,5,0,0,0-1.29.14A5.2,5.2,0,0,0,381.33,187.24Z" style="fill:#455a64"></path><path d="M373.81,194.74c-2.45.28-4.75-2.17-5.12-5.46a7.23,7.23,0,0,1,.78-4.32,4,4,0,0,1,3-2.15,4,4,0,0,1,3.39,1.43,7.17,7.17,0,0,1,1.73,4c.36,3.11-1.13,5.88-3.37,6.4Zm-3.64-9.38a6.4,6.4,0,0,0-.68,3.83c.32,2.85,2.22,5,4.23,4.75s3.38-2.73,3.06-5.58a6.4,6.4,0,0,0-1.53-3.58,3.23,3.23,0,0,0-2.71-1.18c-.1,0-.2,0-.3.06A3.3,3.3,0,0,0,370.17,185.36Z" style="fill:#455a64"></path><path d="M380.8,187.89l.45-.67c-1-.66-3.2-1.44-4.48.29l.64.47C378.55,186.44,380.71,187.83,380.8,187.89Z" style="fill:#455a64"></path><path d="M407.57,186.39l.66-.44c-.21-.32-2.09-3-3.9-3.13s-12.28,2.14-12.73,2.24l.17.79c3-.64,11.21-2.29,12.52-2.23S407.06,185.64,407.57,186.39Z" style="fill:#455a64"></path><path d="M401.13,184.46s2.9-6.62,5.83-5.69,1.54,9.95-1.32,11.72a3.21,3.21,0,0,1-4.55-.86Z" style="fill:#f7a9a0"></path><path d="M406.5,181.35c.05,0,.07.05,0,.08-2,1.31-2.73,3.54-3.12,5.79a1.77,1.77,0,0,1,2.5-1c.07,0,0,.13,0,.13a1.94,1.94,0,0,0-2,1.09,9.42,9.42,0,0,0-.68,1.93c-.06.21-.43.18-.4-.06v0C402.21,186.51,403.59,182.21,406.5,181.35Z" style="fill:#263238"></path><path d="M447.46,262.37H392.4l-1.81-18.74s-4.87-6.29-3.86-11.28c1.71-8.47,11.62-24.47,12.55-26,4.87-8,12.63-8.58,16.93-4.39C430.15,215.53,447.46,262.37,447.46,262.37Z" style="fill:#2783FF"></path><path d="M397.88,207.77c-4.72,4.21-38,33.82-40.36,36.88,0,0-3.45,28.31,11.4,25.73,9.66-1.67,31.52-39.66,38.19-57.15C409.91,205.88,407.78,198.93,397.88,207.77Z" style="fill:#f7a9a0"></path><path d="M377.65,244.66c-.79.11-4.45-5.17-3.61-7.12.55-1.27,2,1.36,2.74,3.32,0-.43-.26-3.73.74-4.06C379.3,236.21,379,244.46,377.65,244.66Z" style="fill:#263238"></path><path d="M377,234.65c-.51-.23-.71-4.69.51-5.53.78-.55.66,1.53.38,3,.15-.26,1.23-2.29,1.94-2.12C381.11,230.28,377.9,235,377,234.65Z" style="fill:#263238"></path><path d="M394.58,238.67a1.81,1.81,0,0,0-.09-.31,1.59,1.59,0,0,0-2-1c.31-.61.69-1.62-.07-1.88a4.94,4.94,0,0,0-2.79.9c-.16.12-.62.35-1.13.7l1-1.3A6.67,6.67,0,0,0,391.3,232c.07-.94-.09-2.44-1.14-2.6s-1.73.69-2.27,1.5c-.21-.69-.55-1.46-1.22-1.63s-1.11.5-1.26,1.13a11,11,0,0,0,0,3.62c.06.57.12,1.15.2,1.72a10.4,10.4,0,0,0-1.33-2.74c-.51-.7-1.34-1.4-2.18-1s-.68,1.28-.48,2a1.39,1.39,0,0,0-1.84.68,1.84,1.84,0,0,0,.9,2.17,14.87,14.87,0,0,0,1.7,1,4.2,4.2,0,0,1,1.62,1.41,10.25,10.25,0,0,1,.89,3.27,7.57,7.57,0,0,1-.81,3.33,48.6,48.6,0,0,1-3.46,5.14,10.8,10.8,0,0,0-.63,1.1c.34-1.38.68-2.77,1-4.15.2-.77.75-3.15-.68-3s-1.54,2.45-1.63,3.51a16.76,16.76,0,0,0,.46,5.69h0a.11.11,0,0,0,0,.08,9.33,9.33,0,0,0,.54,6.81l.23-.29a11.11,11.11,0,0,1-.48-5.67,10.4,10.4,0,0,1,1.49-3.57s0,0,.05,0a22.71,22.71,0,0,1,5.13-2.43c.76-.32,3.09-1.11,2.63-2.47s-2.75,0-3.41.37a15.08,15.08,0,0,0-2.32,1.76l-.31.29a14.29,14.29,0,0,0,2.2-3.91,8.65,8.65,0,0,1,3.39-4c1.31-.82,3.51.19,4.93-.25l.37-.65a3.22,3.22,0,0,1-2.29.23,9.76,9.76,0,0,0-2.22-.2c-.59,0-1.74.36-2.37,0a10.09,10.09,0,0,1,5.62-1.43c.07,0,.08-.11,0-.13a6.81,6.81,0,0,0-5.74,1.48h0a9,9,0,0,1,4.19-2.32s0-.07,0-.07a5.85,5.85,0,0,0-4.31,2.22,1.48,1.48,0,0,1,.46-1.28c.17-.16.34-.33.5-.51a14.63,14.63,0,0,1,1.81-1.27,9.11,9.11,0,0,1,2.66-1.13c.93,0,.4,1.18.21,1.62-.06.14,0,.28.23.2a1.43,1.43,0,0,1,1.87,1.54Zm-14.22,7.83a17.37,17.37,0,0,0-1,7.2s0,0,0,0a24.13,24.13,0,0,1-.25-3.89,13.91,13.91,0,0,1,.19-2.24c.11-.6.4-2,1.07-2.14,1.43-.27.05,4.06-.09,4.63l-.72,2.84c0-.91.11-1.83.24-2.74.18-1.24.53-2.42.75-3.64C380.52,246.47,380.4,246.4,380.36,246.5Zm4.52,1.32a8.64,8.64,0,0,1,1.94-1,2.23,2.23,0,0,1,1.13-.2c1.05.32.3,1.08-.21,1.43-1.9,1.29-4.12,1.75-6.06,2.93a15.05,15.05,0,0,1,2.22-1.68c1.19-.7,2.47-1.11,3.69-1.73.08,0,0-.17-.07-.15a15.38,15.38,0,0,0-3.75,1.64,11.49,11.49,0,0,0-1.79,1.24A13.53,13.53,0,0,1,384.88,247.82Zm-1-9.28a8.71,8.71,0,0,0-1.32-1c-.53-.32-1.08-.6-1.59-1s-1.08-.79-.94-1.5c.19-1,1.2-.84,1.78-.55a.17.17,0,0,0,.24-.22,2.43,2.43,0,0,1-.22-1.35c.29-1.07,1.27-.69,1.77-.2a5.77,5.77,0,0,1,1.15,1.85,14.75,14.75,0,0,1,.85,2.33,8,8,0,0,1,.31,2.48,10.08,10.08,0,0,0-2.43-3.94c-.05,0-.1,0-.07.08a15.69,15.69,0,0,1,2.11,3.57,8.35,8.35,0,0,0-2.81-3.29c-.05,0-.11.05-.06.08a10.83,10.83,0,0,1,2.94,3.88C385,239.84,384.25,238.86,383.89,238.54Zm4.24,2.38a5.11,5.11,0,0,0-2.41,2,6.13,6.13,0,0,0-.43.68,7,7,0,0,0-.85-3.93c.51.45,1.17.91,1.67.29l0,0a1.11,1.11,0,0,0,.16.45A1.93,1.93,0,0,0,388.13,240.92Zm-.64-3.31-.48.61a5.43,5.43,0,0,0-.52.58,16.45,16.45,0,0,0,1.76-6.26,0,0,0,0,0-.09,0,34.33,34.33,0,0,1-1.62,5.63c.06-.6.11-1.19.19-1.78.12-1,.35-1.89.55-2.85,0-.1-.13-.18-.17-.07a14.65,14.65,0,0,0-.83,4.95c0-.29-.09-.58-.15-.85l0-.38v0c-.12-1.44-.32-2.88-.4-4.33a7.15,7.15,0,0,1,.12-2.4c.19-.64.69-.92,1.17-.44a3.23,3.23,0,0,1,.65,1.47.19.19,0,0,0,.35,0c.44-.74,2-2.62,2.71-1.16a4.17,4.17,0,0,1-.38,3.61,19.1,19.1,0,0,1-1.86,2.48C388.14,236.83,387.81,237.22,387.49,237.61Z" style="fill:#263238"></path><path d="M393.82,242.71l-17-17.86s14-13.3,20.76-19c6.57-5.56,16.59-9.81,11.86,4.62C404.86,224.31,393.82,242.71,393.82,242.71Z" style="fill:#2783FF"></path><path d="M394.59,236.81a151.47,151.47,0,0,0-14-14c-.06-.06-.15.05-.09.11,1.39,1.25,7.68,8.18,14,14C394.56,237,394.66,236.89,394.59,236.81Z" style="fill:#263238"></path><path d="M392.27,241.08l1.63,1.56h-.17c3.74-6.82,7.89-14.3,11.21-21.29,1.14-2.42,2.24-4.85,3.2-7.36a55.11,55.11,0,0,1-2.7,7.58,141.68,141.68,0,0,1-11.61,21.3l-.08-.1-1.48-1.7Z" style="fill:#263238"></path><path d="M408.87,215.42a16.65,16.65,0,0,1-2.44,3.22,16,16,0,0,1,2.44-3.22Z" style="fill:#263238"></path><path d="M342.61,236.28c-3.56.09-15,28.53-9.92,29.77,23.6,5.71,30,5.53,36,4.37,6.28-1.21,8.65-13.91,6.74-17.64C372.68,247.37,346.15,236.2,342.61,236.28Z" style="fill:#f7a9a0"></path><path d="M347,238.71s-1.77-1.37-10.86-7.26c-6.3-4.07-24.22-10-41.32,2.33-6.56,4.71-6.11,11.36,1.56,7.68,5.41-2.6,8.93-4.86,10.93-5.21,0,0-4,8.26-1.44,12.92a99.35,99.35,0,0,0,7.56,11.71,19.83,19.83,0,0,0,2.32-1.22s9.52,7.31,17,6.39Z" style="fill:#2783FF"></path><path d="M329.46,228.53c-3.89.56-12.11,1.88-18.45,5.31-7.05,3.8-19.61,13-16.75,18.2,2.1,3.79,7.2.69,7.2.69s-4.38,4.91-1.74,7.92c2.41,2.75,6.22.11,6.22.11s-2.15,3.44.68,5.64c3.4,2.64,7.35-5,13.11-5.29C321,261,329.46,228.53,329.46,228.53Z" style="fill:#2783FF"></path><path d="M316.27,240.62c-3.57,1.12-11,5.76-14.8,11.95-.09.14,0,.28.08.17a78.64,78.64,0,0,1,14.75-12.06A0,0,0,0,0,316.27,240.62Z" style="fill:#263238"></path><path d="M319.9,247.84c-3,1.29-10.45,6.42-14.06,12.82-.08.14,0,.28.09.16a83.75,83.75,0,0,1,14-12.91S319.94,247.83,319.9,247.84Z" style="fill:#263238"></path><polygon points="343.17 236.1 352.38 238.59 342.06 268.68 332.69 266.05 343.17 236.1" style="fill:#2783FF"></polygon><path d="M370.76,248.62a103.83,103.83,0,0,0-19.15-9.14c.09-.24.26-.79.35-1l.3.57-9.21-2.44c-12.59-10.58-29.5-13.61-44.19-5.39,14.59-9.21,32.48-6,44.44,4.46l9.19,2.52.46.13c-.08.25-.29.8-.38,1.06l-.27-.55a81.57,81.57,0,0,1,18.46,9.82Z" style="fill:#263238"></path><path d="M353.4,253.89a17.14,17.14,0,0,0-1.81-.61l.11,1.38-.49-.61,0,1Z" style="fill:#263238"></path><path d="M355.24,259.66s3.68-1.12,5.4-3.56c0,0,4.53-.86,6.52-2a26.72,26.72,0,0,0,4.52-3.8s-.83,5.67-3.4,8.85c-1.61,2-8.32,5.25-12.88,4.15Z" style="fill:#263238"></path><path d="M355.71,260.81a.38.38,0,0,0,.27.31,11.14,11.14,0,0,0,2.79-1.33,26,26,0,0,0,2.62-2.56s-.63,2.35-.77,3,0,2.18.23,2.11.08-1.53.22-2,.8-2.93.8-2.93.95,1.75,1.21,2.07a6.92,6.92,0,0,0,2.33,1c.13-.08-1.58-.91-1.87-1.13a13.75,13.75,0,0,1-1.23-2.24s1.76.83,2.3,1a13.41,13.41,0,0,0,3.55-.1c.11-.12-2.77-.08-3.33-.27s-2.14-1-2.14-1a24.74,24.74,0,0,0,4.12-.91c1.37-.63,3.73-3.62,3.94-3.86s.32-.46-.06-.25-3,3-4,3.56a30.81,30.81,0,0,1-4.4,1.06c-.1,0-.15-.31-.35-.33s-.31.32-.36.33-.25-.14-.42,0,.07.29.07.29-2.05,2.13-2.58,2.56S355.68,260.71,355.71,260.81Z" style="fill:#f7a9a0"></path><path d="M358.69,262.07a.37.37,0,1,1,.17-.49A.36.36,0,0,1,358.69,262.07Z" style="fill:#455a64"></path><path d="M359.57,261.56a.33.33,0,0,1-.46-.1c-.08-.14,0-.33.2-.42a.3.3,0,1,1,.26.52Z" style="fill:#455a64"></path><path d="M359.14,260.88a.34.34,0,0,1-.4.26.34.34,0,0,1-.15-.45.3.3,0,1,1,.55.19Z" style="fill:#455a64"></path><path d="M358.36,260.71a.3.3,0,1,1-.43-.21A.34.34,0,0,1,358.36,260.71Z" style="fill:#455a64"></path><path d="M357.68,261.13a.34.34,0,0,1,.25.4.38.38,0,1,1-.25-.4Z" style="fill:#455a64"></path><path d="M357.5,261.92a.3.3,0,1,1-.21.42A.33.33,0,0,1,357.5,261.92Z" style="fill:#455a64"></path><path d="M357.93,262.6a.3.3,0,1,1,.55.19.34.34,0,0,1-.4.25A.33.33,0,0,1,357.93,262.6Z" style="fill:#455a64"></path><path d="M358.71,262.77a.33.33,0,0,1,.1-.46.34.34,0,0,1,.43.21.3.3,0,1,1-.53.25Z" style="fill:#455a64"></path><path d="M359.39,262.35a.34.34,0,0,1-.26-.4.36.36,0,0,1,.45-.16.35.35,0,0,1,.26.4A.35.35,0,0,1,359.39,262.35Z" style="fill:#455a64"></path><path d="M361.7,261.79a1.83,1.83,0,0,1-.45-.73c-.05-.29.29-.8.29-.8a3.87,3.87,0,0,1,.26.77A3.75,3.75,0,0,1,361.7,261.79Z" style="fill:#455a64"></path><path d="M364.25,261.14a1.83,1.83,0,0,1-.83-.25c-.23-.18-.32-.79-.32-.79a4.5,4.5,0,0,1,.71.4A3.88,3.88,0,0,1,364.25,261.14Z" style="fill:#455a64"></path><path d="M362.7,261a3.56,3.56,0,0,1-.94-1.25,3.2,3.2,0,0,1,.22-1.54,8.59,8.59,0,0,1,.64,1.36A7.54,7.54,0,0,1,362.7,261Z" style="fill:#2783FF"></path><path d="M363.13,261.75a.34.34,0,0,1-.47.11.33.33,0,0,1-.11-.46.34.34,0,0,1,.58.35Z" style="fill:#2783FF"></path><path d="M368.81,257.51a1.85,1.85,0,0,1-.77.32c-.28,0-.72-.4-.72-.4a4.18,4.18,0,0,1,.78-.13A3.31,3.31,0,0,1,368.81,257.51Z" style="fill:#455a64"></path><path d="M368.5,255.2a1.76,1.76,0,0,1-.36.75,1.58,1.58,0,0,1-.8.19,4.29,4.29,0,0,1,.49-.62A3.31,3.31,0,0,1,368.5,255.2Z" style="fill:#455a64"></path><path d="M367.07,256.86a3.49,3.49,0,0,1-1.33.71,3.05,3.05,0,0,1-1.44-.44,8.64,8.64,0,0,1,1.39-.41A7.43,7.43,0,0,1,367.07,256.86Z" style="fill:#2783FF"></path><path d="M370.19,254.14a3.42,3.42,0,0,1-.22,1.49c-.24.48-1.2.9-1.2.9a7.86,7.86,0,0,1,.49-1.37A6.93,6.93,0,0,1,370.19,254.14Z" style="fill:#2783FF"></path><path d="M368.19,256.5a.32.32,0,0,1,0,.46.33.33,0,0,1-.5-.43A.32.32,0,0,1,368.19,256.5Z" style="fill:#2783FF"></path><path d="M366.93,259a1.64,1.64,0,0,1-.68.31c-.26,0-.66-.33-.66-.33a3.2,3.2,0,0,1,.69-.14A3,3,0,0,1,366.93,259Z" style="fill:#455a64"></path><path d="M365.85,259.77a3,3,0,0,1-1.33-.29,2.7,2.7,0,0,1-.73-1.13,7.86,7.86,0,0,1,1.2.52A7.58,7.58,0,0,1,365.85,259.77Z" style="fill:#2783FF"></path><path d="M366.54,260a.28.28,0,0,1-.24.33.29.29,0,0,1-.34-.24.29.29,0,1,1,.58-.09Z" style="fill:#2783FF"></path><path d="M376.36,265.05c-.18.2-.37.39-.56.58l-.33.34a26.5,26.5,0,0,1-2.83,2.51c-.33.13-.67.24-1,.35a13.6,13.6,0,0,1-2.32.54,20.84,20.84,0,0,1-7.27-.67c-1.26-.32-2.12-.61-2.23-.65a15.1,15.1,0,0,0,4.48,2.08,5.93,5.93,0,0,0,.76.17c.59.1,1.34.18,2.14.25h0l.52.05c-.88.14-1.78.27-2.75.35q-.45,0-.93.06l-.73,0h0a.1.1,0,0,1-.09,0h0c-.75,0-1.54,0-2.4,0l-1.1-.05-1.15-.08-.92-.08c-1.81-.17-3.89-.44-6.31-.84a10.44,10.44,0,0,1-3.48-5.71,9.08,9.08,0,0,1,3.34-9.39l.46-.33.06,0a5.81,5.81,0,0,1,1-.53,3.2,3.2,0,0,1,.55-.18h0a3.84,3.84,0,0,1,4.08,1.86,4.23,4.23,0,0,1,.42.89,3.5,3.5,0,0,1-.07,2h0s0,0,0,.05a11.07,11.07,0,0,1-.6,1.46c-.15.3-.28.57-.36.78a1.05,1.05,0,0,0-.09.27l.61.17.71.16a2.47,2.47,0,0,0,.29.06h0l.64.12c.35,0,.73.11,1.14.15a5.88,5.88,0,0,0,.6,0h.31a6.3,6.3,0,0,0,.75-.05h0c.28,0,.55-.06.81-.1l.66-.13a17.87,17.87,0,0,0,1.75-.44,3.62,3.62,0,0,0,.32.22c2.32,1.59,6.14,2.67,9.13,3.31C375.1,264.8,375.77,264.93,376.36,265.05Z" style="fill:#263238"></path><path d="M349.29,261.61a2.23,2.23,0,0,1-1.15.46,2.42,2.42,0,0,1-.17-1.13c0-.69.47-1.17.7-1.14.47.05.19.74.23.76s.57-.53.9-.19S349.84,261.19,349.29,261.61Z" style="fill:#455a64"></path><path d="M351.13,256a3.56,3.56,0,0,0,4.05,4.78c1-.3,1.94-2.64,1.87-3.53a3.71,3.71,0,0,0-2.42-2.63A4.13,4.13,0,0,0,351.13,256Z" style="fill:#f7a9a0"></path><path d="M354.87,255.66a1.56,1.56,0,0,0-2.14-.22,1.14,1.14,0,0,0-.33,1.56,1.3,1.3,0,0,0,1.83.41A1.25,1.25,0,0,0,354.87,255.66Z" style="fill:#263238"></path><path d="M354.27,262c-.3-.11-1.4.05-1.87-.09a5.53,5.53,0,0,1-1.75-1.27c-.19-.27-.57-1.36-.63-1.29a4.63,4.63,0,0,0,.42,1.6,6.46,6.46,0,0,0,1.85,1.65,4.67,4.67,0,0,0,2,0A.39.39,0,0,0,354.27,262Z" style="fill:#f7a9a0"></path><path d="M354.54,263.75c-.34,0-1.51.39-2.06.35a5.93,5.93,0,0,1-2.17-1c-.26-.25-.89-1.33-.94-1.24a4.62,4.62,0,0,0,.78,1.62,7,7,0,0,0,2.35,1.35,5.48,5.48,0,0,0,2.19-.44A.42.42,0,0,0,354.54,263.75Z" style="fill:#f7a9a0"></path><path d="M356.14,267.42c-.34,0-1.39.71-1.93.8a7.89,7.89,0,0,1-2.69-.54,8.91,8.91,0,0,0-1.32-.83,6.27,6.27,0,0,0,1.24,1.23,9.09,9.09,0,0,0,3,.89,5.47,5.47,0,0,0,2-.92A.43.43,0,0,0,356.14,267.42Z" style="fill:#f7a9a0"></path><path d="M357.46,268.72c-.28.08-1,.82-1.49,1a7.18,7.18,0,0,1-2.4,0,7.89,7.89,0,0,0-1.46-.45,8.88,8.88,0,0,0,1.46.8,8.11,8.11,0,0,0,2.69.23,4.65,4.65,0,0,0,1.56-1.11A.35.35,0,0,0,357.46,268.72Z" style="fill:#f7a9a0"></path><path d="M359,270.34a2.52,2.52,0,0,1-.45.58l-.92-.08c.35-.27.72-.78.95-.89S359.07,270.11,359,270.34Z" style="fill:#f7a9a0"></path><path d="M355.15,265.69c-.39,0-1.73.54-2.35.55a8.65,8.65,0,0,1-2.85-1.09c-.29-.26-1-1.39-1-1.29a4.69,4.69,0,0,0,.82,1.72,9.8,9.8,0,0,0,3.06,1.51,6.76,6.76,0,0,0,2.49-.67C355.56,266.21,355.42,265.7,355.15,265.69Z" style="fill:#f7a9a0"></path><path d="M355.07,261.7a1.88,1.88,0,0,0,.09,1c.09.07.39.09.48-.06a1.33,1.33,0,0,0-.09-.89A.49.49,0,0,0,355.07,261.7Z" style="fill:#f7a9a0"></path><path d="M355.4,263.28a1.74,1.74,0,0,0,.27.93c.1.05.4,0,.46-.15a1.28,1.28,0,0,0-.27-.85A.45.45,0,0,0,355.4,263.28Z" style="fill:#f7a9a0"></path><path d="M356,265a1.74,1.74,0,0,0,.4.88.38.38,0,0,0,.43-.22,1.3,1.3,0,0,0-.39-.8C356.33,264.82,356.06,264.88,356,265Z" style="fill:#f7a9a0"></path><path d="M356.85,266.71c0,.14.49.75.6.76s.37-.13.37-.31a1.36,1.36,0,0,0-.57-.69C357.13,266.46,356.87,266.59,356.85,266.71Z" style="fill:#f7a9a0"></path><path d="M357.89,268.06c0,.14.6.66.71.66s.34-.18.32-.36a1.4,1.4,0,0,0-.66-.6C358.13,267.77,357.9,267.93,357.89,268.06Z" style="fill:#f7a9a0"></path><path d="M359.23,269.3a1.7,1.7,0,0,0,.84.48c.11,0,.3-.26.23-.42a1.33,1.33,0,0,0-.79-.43C359.39,269,359.2,269.18,359.23,269.3Z" style="fill:#f7a9a0"></path><path d="M360.73,270.13a1.78,1.78,0,0,0,.89.39c.1,0,.27-.29.18-.45a1.39,1.39,0,0,0-.82-.35A.48.48,0,0,0,360.73,270.13Z" style="fill:#f7a9a0"></path><path d="M363.33,271.05h0a.1.1,0,0,1-.09,0h0c-.24,0-.75-.21-.79-.32s.11-.36.22-.42a1.37,1.37,0,0,1,.85.29C363.56,270.74,363.43,271,363.33,271.05Z" style="fill:#f7a9a0"></path><path d="M365,271q-.45,0-.93.06a.63.63,0,0,1,.13-.2A1.36,1.36,0,0,1,365,271Z" style="fill:#f7a9a0"></path><path d="M375.8,265.63l-.33.34a24.07,24.07,0,0,1-5.44-.51c-1.21-.47-4.46-2.11-4.46-2.11s.89,1.85,1.27,2.43,3.06,2.6,2.88,2.63a16,16,0,0,1-3.35-2.44c-.38-.55-1.39-2.58-1.39-2.58a16.57,16.57,0,0,0-.5,2.95,16.73,16.73,0,0,1,.91,2.38,8,8,0,0,1-1.4-2.61c0-.49.39-2.78.39-2.78s-2.43,1.81-2.87,2.12a11.55,11.55,0,0,0-1.16,1.25c-.23.27-.42.46-.48.44s0-.4.26-.8a6.13,6.13,0,0,1,1.05-1.31c.59-.49,2.87-2.2,2.87-2.2a29.9,29.9,0,0,1-4.26.48c-.29,0-.67-.07-1.07-.13a10.84,10.84,0,0,1-2.47-.64.44.44,0,0,1,0-.49,18,18,0,0,1,2.28.44,8.91,8.91,0,0,0,1.54.23c.81,0,4.24-.51,4.24-.51s.09-.32.15-.32c.26,0,.34.26.39.28s.41-.19.57,0,0,.48.08.55,4,1.81,4.83,2.17A37.39,37.39,0,0,0,375.8,265.63Z" style="fill:#f7a9a0"></path><path d="M349.93,258a1.43,1.43,0,0,1,0-.71c.08-.23.54-.45.54-.45a3.05,3.05,0,0,1-.15.66A3.09,3.09,0,0,1,349.93,258Z" style="fill:#455a64"></path><path d="M349.08,259.2a2.44,2.44,0,0,1-.19-1,2.24,2.24,0,0,1,.6-.86,6.11,6.11,0,0,1,0,1A5,5,0,0,1,349.08,259.2Z" style="fill:#2783FF"></path><path d="M361.3,267.52a2,2,0,0,1,0-.94c.12-.29.73-.56.73-.56a4.54,4.54,0,0,1-.21.85A3.72,3.72,0,0,1,361.3,267.52Z" style="fill:#455a64"></path><path d="M364,268.39a2,2,0,0,1-.61-.7,1.72,1.72,0,0,1,.16-.91,4.81,4.81,0,0,1,.42.78A3.58,3.58,0,0,1,364,268.39Z" style="fill:#455a64"></path><path d="M362.65,267.4a4,4,0,0,1-.13-1.69c.14-.58,1.09-1.29,1.09-1.29a9.14,9.14,0,0,1-.2,1.63A8.14,8.14,0,0,1,362.65,267.4Z" style="fill:#2783FF"></path><path d="M360.79,271.05l-1.1-.05v0c.14-.35.59-.17.95,0Z" style="fill:#455a64"></path><path d="M358.9,265.42a.37.37,0,1,1,.17-.49A.37.37,0,0,1,358.9,265.42Z" style="fill:#455a64"></path><path d="M359.77,264.91a.3.3,0,1,1,.21-.42A.33.33,0,0,1,359.77,264.91Z" style="fill:#455a64"></path><path d="M359.35,264.23a.34.34,0,0,1-.4.26.36.36,0,0,1-.16-.45.34.34,0,0,1,.4-.25A.33.33,0,0,1,359.35,264.23Z" style="fill:#455a64"></path><path d="M358.56,264.05a.3.3,0,1,1-.52.26.3.3,0,1,1,.52-.26Z" style="fill:#455a64"></path><path d="M357.88,264.48a.34.34,0,0,1,.26.4.34.34,0,0,1-.45.15.3.3,0,1,1,.19-.55Z" style="fill:#455a64"></path><path d="M357.71,265.26a.3.3,0,1,1-.21.43A.34.34,0,0,1,357.71,265.26Z" style="fill:#455a64"></path><path d="M358.13,265.94a.35.35,0,0,1,.4-.25.35.35,0,0,1,.16.45.35.35,0,0,1-.4.25A.34.34,0,0,1,358.13,265.94Z" style="fill:#455a64"></path><path d="M358.92,266.12a.3.3,0,1,1,.42.21A.33.33,0,0,1,358.92,266.12Z" style="fill:#455a64"></path><path d="M359.6,265.7a.34.34,0,0,1-.26-.4.33.33,0,0,1,.45-.16.34.34,0,0,1,.25.4A.34.34,0,0,1,359.6,265.7Z" style="fill:#455a64"></path><path d="M362.63,268.31a.38.38,0,0,1-.49-.17.37.37,0,1,1,.66-.32A.37.37,0,0,1,362.63,268.31Z" style="fill:#2783FF"></path><path d="M370.94,268.57a2,2,0,0,1-.88-.29c-.25-.2-.33-.87-.33-.87a4.17,4.17,0,0,1,.75.46A3.41,3.41,0,0,1,370.94,268.57Z" style="fill:#455a64"></path><path d="M372.41,266.31a2,2,0,0,1-.85.38c-.32,0-.82-.43-.82-.43a5.06,5.06,0,0,1,.86-.17A4,4,0,0,1,372.41,266.31Z" style="fill:#455a64"></path><path d="M369.94,266.86a3.92,3.92,0,0,1-1.66-.37,3.41,3.41,0,0,1-.9-1.42,9.52,9.52,0,0,1,1.49.66A8.53,8.53,0,0,1,369.94,266.86Z" style="fill:#2783FF"></path><path d="M374.63,266.64a3.83,3.83,0,0,1-1.29,1.11,3.43,3.43,0,0,1-1.68-.11,9.73,9.73,0,0,1,1.42-.81A9.19,9.19,0,0,1,374.63,266.64Z" style="fill:#2783FF"></path><path d="M371.19,267.23a.36.36,0,0,1-.31.42.35.35,0,0,1-.41-.3.36.36,0,0,1,.72-.12Z" style="fill:#2783FF"></path><path d="M367.74,267.94a1.75,1.75,0,0,1-.81-.11c-.24-.13-.41-.69-.41-.69a3.85,3.85,0,0,1,.72.27A3.48,3.48,0,0,1,367.74,267.94Z" style="fill:#455a64"></path><path d="M366.27,268.07a3.45,3.45,0,0,1-1-1,3,3,0,0,1,0-1.46,8.54,8.54,0,0,1,.79,1.17A7.2,7.2,0,0,1,366.27,268.07Z" style="fill:#2783FF"></path><path d="M366.78,268.68a.32.32,0,1,1-.17-.42A.32.32,0,0,1,366.78,268.68Z" style="fill:#2783FF"></path><path d="M377.63,225.92a141.48,141.48,0,0,1-17.73,16.35,141.48,141.48,0,0,1,17.73-16.35Z" style="fill:#263238"></path></g><g id="freepik--Lamp--inject-64"><rect x="115.99" y="165.26" width="5.31" height="294.43" style="fill:#263238"></rect><rect x="58.78" y="133.83" width="178.33" height="5.31" transform="translate(-53.18 144.59) rotate(-45)" style="fill:#263238"></rect><rect x="115.99" y="433.57" width="5.31" height="57.53" transform="translate(-343.7 580.98) rotate(-90)" style="fill:#263238"></rect><polygon points="213.41 91.12 231.19 74.42 214.45 60.81 201.13 73.34 213.41 91.12" style="fill:#37474f"></polygon><polygon points="231.19 74.41 213.41 91.12 208.53 84.05 223.77 68.39 231.19 74.41" style="opacity:0.1"></polygon><polygon points="211.57 119.02 259.56 73.92 236.64 61.58 200.67 95.37 211.57 119.02" style="fill:#37474f"></polygon><polygon points="211.57 119.02 259.56 73.92 447.46 171.31 449.62 464.71 211.57 119.02" style="fill:#2783FF;opacity:0.1"></polygon></g><g id="freepik--Table--inject-64"><polygon points="307.81 464.99 302.81 464.99 302.81 275.23 256.28 275.23 256.28 464.99 251.28 464.99 251.28 270.23 307.81 270.23 307.81 464.99" style="fill:#a6a6a6"></polygon><rect x="177.58" y="298.77" width="127.73" height="8.5" style="fill:#2783FF"></rect><rect x="248.3" y="298.77" width="57.01" height="8.5" style="fill:#030402;opacity:0.1"></rect><rect x="177.58" y="409.88" width="127.73" height="37.87" style="fill:#2783FF"></rect><rect x="248.3" y="409.88" width="57.01" height="37.87" style="fill:#030402;opacity:0.1"></rect><rect x="268.49" y="426.8" width="16.63" height="4.02" style="fill:#a6a6a6"></rect><rect x="177.58" y="369.11" width="127.73" height="37.87" style="fill:#2783FF"></rect><rect x="248.3" y="369.11" width="57.01" height="37.87" style="fill:#030402;opacity:0.1"></rect><rect x="268.49" y="386.04" width="16.63" height="4.02" style="fill:#a6a6a6"></rect><rect x="177.58" y="328.35" width="127.73" height="37.87" style="fill:#2783FF"></rect><rect x="248.3" y="328.35" width="57.01" height="37.87" style="fill:#030402;opacity:0.1"></rect><rect x="268.49" y="345.28" width="16.63" height="4.02" style="fill:#a6a6a6"></rect><rect x="237.4" y="278.91" width="7.56" height="19.86" style="fill:#455a64"></rect><rect x="239.56" y="281.49" width="4.77" height="12.16" style="fill:#ebebeb"></rect><rect x="239.2" y="277.72" width="3.97" height="1.19" style="fill:#ebebeb"></rect><polygon points="241.81 273.87 240.46 273.87 240.16 277.72 242.21 277.72 241.81 273.87" style="fill:#ebebeb"></polygon><rect x="246.98" y="278.91" width="7.56" height="19.86" style="fill:#263238"></rect><rect x="249.14" y="281.49" width="4.77" height="12.16" style="fill:#ebebeb"></rect><rect x="248.78" y="277.72" width="3.97" height="1.19" style="fill:#ebebeb"></rect><polygon points="251.39 273.87 250.04 273.87 249.74 277.72 251.79 277.72 251.39 273.87" style="fill:#ebebeb"></polygon><rect x="199.77" y="263.18" width="20.28" height="35.59" style="fill:#ebebeb"></rect><rect x="203.43" y="259.56" width="12.97" height="3.62" style="fill:#2783FF"></rect><path d="M210.91,261.37h-2v-7.13a5.42,5.42,0,0,1,1.6-3.86,5.49,5.49,0,0,1,5.85-1.23l12.9,5.67-.34.87L215.63,251a3.46,3.46,0,0,0-4.72,3.22Z" style="fill:#2783FF"></path><polygon points="231.61 464.99 226.61 464.99 226.61 275.23 180.08 275.23 180.08 464.99 175.08 464.99 175.08 270.23 231.61 270.23 231.61 464.99" style="fill:#a6a6a6"></polygon></g><g id="freepik--speech-bubble--inject-64"><path d="M284.59,88.85a24.5,24.5,0,0,0,41,15.5l12.26,1.8-6.14-10.6a24.22,24.22,0,0,0,1.68-11.8,24.51,24.51,0,0,0-48.75,5.1Z" style="fill:#fff"></path><path d="M291.93,68.61a25.07,25.07,0,0,1,9.45-5.79,25,25,0,0,1,21.54,2.9,25.08,25.08,0,0,1,7.67,8.17,24.78,24.78,0,0,1,1.51,21.84l0-.42,6.09,10.62.45.79-.89-.14-12.24-1.88.29-.09a24.7,24.7,0,0,1-12.13,6,22.65,22.65,0,0,1-3.39.35,24.12,24.12,0,0,1-3.4-.06,24.47,24.47,0,0,1-6.6-1.58,24.09,24.09,0,0,1-5.91-3.29,27,27,0,0,1-2.59-2.19,25.78,25.78,0,0,1-2.22-2.56,24.63,24.63,0,0,1,2.39-32.66Zm-2.32,32.61a29.66,29.66,0,0,0,2.23,2.53,28,28,0,0,0,2.59,2.16,23,23,0,0,0,5.91,3.19,24.54,24.54,0,0,0,6.55,1.44,23.41,23.41,0,0,0,3.35,0,20.48,20.48,0,0,0,3.32-.4,24.18,24.18,0,0,0,11.74-6l.12-.11.17,0,12.27,1.72-.44.65-6.17-10.58-.12-.2.09-.22a24.13,24.13,0,0,0-1.38-21,25.18,25.18,0,0,0-7.34-8,24,24,0,0,0-10.12-4,24.23,24.23,0,0,0-22.77,38.89Z" style="fill:#263238"></path><path d="M298.58,90.92a32.11,32.11,0,0,0,10.29,8.94,32.11,32.11,0,0,0,10.29-8.94c3.63-4.79,3.45-12.3-1.74-13.92-5.73-1.8-8.55,6.83-8.55,6.83S306,75.14,300.32,77C295.15,78.68,295,86.13,298.58,90.92Z" style="fill:#2783FF"></path></g></svg>
